M48
;GenerationSoftware,Autodesk,EAGLE,9.6.2*%
;CreationDate,2020-09-15T19:58:49Z*%
FMAT,2
ICI,OFF
METRIC,TZ,000.000
T4C0.350
T3C0.500
T2C0.800
T1C2.500
%
G90
M71
T1
X0Y0
X0Y-40958
X46037Y-40958
X46037Y0
T2
X125Y-19358
X57Y-9053
X57Y-13052
X125Y-15357
X57Y-21595
X57Y-25595
X7Y-32132
X7Y-28132
T3
X46222Y-10785
X46222Y-9535
T4
X30170Y-13963
X33338Y-1587
X19368Y-41593
X3492Y-9843
X3492Y-18098
X3492Y-19050
X2540Y-21590
X12700Y-2857
X35243Y-21636
X39053Y-36830
X43815Y-39370
X15240Y-21273
X12382Y-18415
X45085Y-28257
X44450Y-9525
X41593Y-31115
X41275Y-19685
X26035Y-25082
X26035Y-29210
X37081Y-23812
X29210Y-35243
X44767Y-33338
X42545Y-17780
X32385Y-36195
X11747Y-34925
X24765Y-32385
X19368Y-35782
X20638Y-40958
X12065Y-37148
X44445Y-20008
X42228Y-27305
M30