G04 EAGLE Gerber RS-274X export*
G75*
%MOMM*%
%FSLAX34Y34*%
%LPD*%
%IN*%
%IPPOS*%
%AMOC8*
5,1,8,0,0,1.08239X$1,22.5*%
G01*
%ADD10C,0.254000*%


D10*
X-19996Y-410414D02*
X-19920Y-412157D01*
X-19692Y-413887D01*
X-19314Y-415590D01*
X-18790Y-417254D01*
X-18122Y-418866D01*
X-17316Y-420414D01*
X-16379Y-421885D01*
X-15317Y-423270D01*
X-14138Y-424556D01*
X-12851Y-425735D01*
X-11467Y-426797D01*
X-9996Y-427734D01*
X-8448Y-428540D01*
X-6836Y-429208D01*
X-5172Y-429732D01*
X-3469Y-430110D01*
X-1739Y-430338D01*
X4Y-430414D01*
X460004Y-430414D01*
X461747Y-430338D01*
X463477Y-430110D01*
X465181Y-429732D01*
X466845Y-429208D01*
X468457Y-428540D01*
X470004Y-427734D01*
X471476Y-426797D01*
X472860Y-425735D01*
X474146Y-424556D01*
X475325Y-423270D01*
X476387Y-421885D01*
X477325Y-420414D01*
X478130Y-418866D01*
X478798Y-417254D01*
X479323Y-415590D01*
X479700Y-413887D01*
X479928Y-412157D01*
X480004Y-410414D01*
X480004Y-414D01*
X479928Y1329D01*
X479700Y3059D01*
X479323Y4763D01*
X478798Y6427D01*
X478130Y8039D01*
X477325Y9586D01*
X476387Y11058D01*
X475325Y12442D01*
X474146Y13728D01*
X472860Y14907D01*
X471476Y15969D01*
X470004Y16907D01*
X468457Y17712D01*
X466845Y18380D01*
X465181Y18905D01*
X463477Y19282D01*
X461747Y19510D01*
X460004Y19586D01*
X4Y19586D01*
X-1739Y19510D01*
X-3469Y19282D01*
X-5172Y18905D01*
X-6836Y18380D01*
X-8448Y17712D01*
X-9996Y16907D01*
X-11467Y15969D01*
X-12852Y14907D01*
X-14138Y13728D01*
X-15317Y12442D01*
X-16379Y11058D01*
X-17316Y9586D01*
X-18122Y8039D01*
X-18790Y6427D01*
X-19314Y4763D01*
X-19692Y3059D01*
X-19920Y1329D01*
X-19996Y-414D01*
X-19996Y-410414D01*
X12500Y-491D02*
X12423Y-1470D01*
X12269Y-2441D01*
X12040Y-3396D01*
X11736Y-4330D01*
X11361Y-5237D01*
X10915Y-6112D01*
X10401Y-6950D01*
X9824Y-7745D01*
X9186Y-8492D01*
X8492Y-9186D01*
X7745Y-9824D01*
X6950Y-10401D01*
X6112Y-10915D01*
X5237Y-11361D01*
X4330Y-11736D01*
X3396Y-12040D01*
X2441Y-12269D01*
X1470Y-12423D01*
X491Y-12500D01*
X-491Y-12500D01*
X-1470Y-12423D01*
X-2441Y-12269D01*
X-3396Y-12040D01*
X-4330Y-11736D01*
X-5237Y-11361D01*
X-6112Y-10915D01*
X-6950Y-10401D01*
X-7745Y-9824D01*
X-8492Y-9186D01*
X-9186Y-8492D01*
X-9824Y-7745D01*
X-10401Y-6950D01*
X-10915Y-6112D01*
X-11361Y-5237D01*
X-11736Y-4330D01*
X-12040Y-3396D01*
X-12269Y-2441D01*
X-12423Y-1470D01*
X-12500Y-491D01*
X-12500Y491D01*
X-12423Y1470D01*
X-12269Y2441D01*
X-12040Y3396D01*
X-11736Y4330D01*
X-11361Y5237D01*
X-10915Y6112D01*
X-10401Y6950D01*
X-9824Y7745D01*
X-9186Y8492D01*
X-8492Y9186D01*
X-7745Y9824D01*
X-6950Y10401D01*
X-6112Y10915D01*
X-5237Y11361D01*
X-4330Y11736D01*
X-3396Y12040D01*
X-2441Y12269D01*
X-1470Y12423D01*
X-491Y12500D01*
X491Y12500D01*
X1470Y12423D01*
X2441Y12269D01*
X3396Y12040D01*
X4330Y11736D01*
X5237Y11361D01*
X6112Y10915D01*
X6950Y10401D01*
X7745Y9824D01*
X8492Y9186D01*
X9186Y8492D01*
X9824Y7745D01*
X10401Y6950D01*
X10915Y6112D01*
X11361Y5237D01*
X11736Y4330D01*
X12040Y3396D01*
X12269Y2441D01*
X12423Y1470D01*
X12500Y491D01*
X12500Y-491D01*
X12500Y-410066D02*
X12423Y-411045D01*
X12269Y-412016D01*
X12040Y-412971D01*
X11736Y-413905D01*
X11361Y-414812D01*
X10915Y-415687D01*
X10401Y-416525D01*
X9824Y-417320D01*
X9186Y-418067D01*
X8492Y-418761D01*
X7745Y-419399D01*
X6950Y-419976D01*
X6112Y-420490D01*
X5237Y-420936D01*
X4330Y-421311D01*
X3396Y-421615D01*
X2441Y-421844D01*
X1470Y-421998D01*
X491Y-422075D01*
X-491Y-422075D01*
X-1470Y-421998D01*
X-2441Y-421844D01*
X-3396Y-421615D01*
X-4330Y-421311D01*
X-5237Y-420936D01*
X-6112Y-420490D01*
X-6950Y-419976D01*
X-7745Y-419399D01*
X-8492Y-418761D01*
X-9186Y-418067D01*
X-9824Y-417320D01*
X-10401Y-416525D01*
X-10915Y-415687D01*
X-11361Y-414812D01*
X-11736Y-413905D01*
X-12040Y-412971D01*
X-12269Y-412016D01*
X-12423Y-411045D01*
X-12500Y-410066D01*
X-12500Y-409084D01*
X-12423Y-408105D01*
X-12269Y-407135D01*
X-12040Y-406179D01*
X-11736Y-405245D01*
X-11361Y-404338D01*
X-10915Y-403463D01*
X-10401Y-402625D01*
X-9824Y-401830D01*
X-9186Y-401083D01*
X-8492Y-400389D01*
X-7745Y-399751D01*
X-6950Y-399174D01*
X-6112Y-398660D01*
X-5237Y-398214D01*
X-4330Y-397839D01*
X-3396Y-397535D01*
X-2441Y-397306D01*
X-1470Y-397152D01*
X-491Y-397075D01*
X491Y-397075D01*
X1470Y-397152D01*
X2441Y-397306D01*
X3396Y-397535D01*
X4330Y-397839D01*
X5237Y-398214D01*
X6112Y-398660D01*
X6950Y-399174D01*
X7745Y-399751D01*
X8492Y-400389D01*
X9186Y-401083D01*
X9824Y-401830D01*
X10401Y-402625D01*
X10915Y-403463D01*
X11361Y-404338D01*
X11736Y-405245D01*
X12040Y-406179D01*
X12269Y-407135D01*
X12423Y-408105D01*
X12500Y-409084D01*
X12500Y-410066D01*
X472875Y-410066D02*
X472798Y-411045D01*
X472644Y-412016D01*
X472415Y-412971D01*
X472111Y-413905D01*
X471736Y-414812D01*
X471290Y-415687D01*
X470776Y-416525D01*
X470199Y-417320D01*
X469561Y-418067D01*
X468867Y-418761D01*
X468120Y-419399D01*
X467325Y-419976D01*
X466487Y-420490D01*
X465612Y-420936D01*
X464705Y-421311D01*
X463771Y-421615D01*
X462816Y-421844D01*
X461845Y-421998D01*
X460866Y-422075D01*
X459884Y-422075D01*
X458905Y-421998D01*
X457935Y-421844D01*
X456979Y-421615D01*
X456045Y-421311D01*
X455138Y-420936D01*
X454263Y-420490D01*
X453425Y-419976D01*
X452630Y-419399D01*
X451883Y-418761D01*
X451189Y-418067D01*
X450551Y-417320D01*
X449974Y-416525D01*
X449460Y-415687D01*
X449014Y-414812D01*
X448639Y-413905D01*
X448335Y-412971D01*
X448106Y-412016D01*
X447952Y-411045D01*
X447875Y-410066D01*
X447875Y-409084D01*
X447952Y-408105D01*
X448106Y-407135D01*
X448335Y-406179D01*
X448639Y-405245D01*
X449014Y-404338D01*
X449460Y-403463D01*
X449974Y-402625D01*
X450551Y-401830D01*
X451189Y-401083D01*
X451883Y-400389D01*
X452630Y-399751D01*
X453425Y-399174D01*
X454263Y-398660D01*
X455138Y-398214D01*
X456045Y-397839D01*
X456979Y-397535D01*
X457935Y-397306D01*
X458905Y-397152D01*
X459884Y-397075D01*
X460866Y-397075D01*
X461845Y-397152D01*
X462816Y-397306D01*
X463771Y-397535D01*
X464705Y-397839D01*
X465612Y-398214D01*
X466487Y-398660D01*
X467325Y-399174D01*
X468120Y-399751D01*
X468867Y-400389D01*
X469561Y-401083D01*
X470199Y-401830D01*
X470776Y-402625D01*
X471290Y-403463D01*
X471736Y-404338D01*
X472111Y-405245D01*
X472415Y-406179D01*
X472644Y-407135D01*
X472798Y-408105D01*
X472875Y-409084D01*
X472875Y-410066D01*
X472875Y-491D02*
X472798Y-1470D01*
X472644Y-2441D01*
X472415Y-3396D01*
X472111Y-4330D01*
X471736Y-5237D01*
X471290Y-6112D01*
X470776Y-6950D01*
X470199Y-7745D01*
X469561Y-8492D01*
X468867Y-9186D01*
X468120Y-9824D01*
X467325Y-10401D01*
X466487Y-10915D01*
X465612Y-11361D01*
X464705Y-11736D01*
X463771Y-12040D01*
X462816Y-12269D01*
X461845Y-12423D01*
X460866Y-12500D01*
X459884Y-12500D01*
X458905Y-12423D01*
X457935Y-12269D01*
X456979Y-12040D01*
X456045Y-11736D01*
X455138Y-11361D01*
X454263Y-10915D01*
X453425Y-10401D01*
X452630Y-9824D01*
X451883Y-9186D01*
X451189Y-8492D01*
X450551Y-7745D01*
X449974Y-6950D01*
X449460Y-6112D01*
X449014Y-5237D01*
X448639Y-4330D01*
X448335Y-3396D01*
X448106Y-2441D01*
X447952Y-1470D01*
X447875Y-491D01*
X447875Y491D01*
X447952Y1470D01*
X448106Y2441D01*
X448335Y3396D01*
X448639Y4330D01*
X449014Y5237D01*
X449460Y6112D01*
X449974Y6950D01*
X450551Y7745D01*
X451189Y8492D01*
X451883Y9186D01*
X452630Y9824D01*
X453425Y10401D01*
X454263Y10915D01*
X455138Y11361D01*
X456045Y11736D01*
X456979Y12040D01*
X457935Y12269D01*
X458905Y12423D01*
X459884Y12500D01*
X460866Y12500D01*
X461845Y12423D01*
X462816Y12269D01*
X463771Y12040D01*
X464705Y11736D01*
X465612Y11361D01*
X466487Y10915D01*
X467325Y10401D01*
X468120Y9824D01*
X468867Y9186D01*
X469561Y8492D01*
X470199Y7745D01*
X470776Y6950D01*
X471290Y6112D01*
X471736Y5237D01*
X472111Y4330D01*
X472415Y3396D01*
X472644Y2441D01*
X472798Y1470D01*
X472875Y491D01*
X472875Y-491D01*
M02*
