G04 EAGLE Gerber RS-274X export*
G75*
%MOMM*%
%FSLAX34Y34*%
%LPD*%
%INSilkscreen Bottom*%
%IPPOS*%
%AMOC8*
5,1,8,0,0,1.08239X$1,22.5*%
G01*
%ADD10C,0.203200*%
%ADD11C,0.050800*%
%ADD12R,0.375000X4.000000*%
%ADD13C,0.100000*%
%ADD14C,0.127000*%
%ADD15C,0.101600*%
%ADD16C,0.152400*%
%ADD17C,0.000000*%
%ADD18C,0.076200*%


D10*
X481725Y-81350D02*
X481725Y-121850D01*
X451725Y-121850D01*
X451725Y-81350D01*
X481725Y-81350D01*
D11*
X469225Y-81600D02*
X469225Y-85350D01*
X479225Y-85350D01*
X469225Y-117850D02*
X469225Y-121600D01*
X469225Y-117850D02*
X479225Y-117850D01*
X462975Y-85350D02*
X462975Y-81600D01*
X462975Y-117850D02*
X462975Y-121600D01*
X462975Y-85350D02*
X455475Y-85350D01*
X455475Y-117850D01*
X462975Y-117850D01*
X455475Y-117850D02*
X452975Y-120350D01*
X455475Y-85350D02*
X452975Y-82850D01*
D12*
X479850Y-101600D03*
D11*
X448971Y-87354D02*
X444479Y-90349D01*
X444479Y-87354D02*
X448971Y-90349D01*
X447973Y-85600D02*
X448971Y-84352D01*
X444479Y-84352D01*
X444479Y-85600D02*
X444479Y-83104D01*
D13*
X273050Y-323850D02*
X273050Y-349250D01*
X273050Y-323850D02*
X476250Y-323850D01*
X476250Y-349250D02*
X273050Y-349250D01*
D14*
X476250Y-349250D02*
X476250Y-323850D01*
D13*
X273050Y-171450D02*
X273050Y-146050D01*
X476250Y-146050D01*
X476250Y-171450D02*
X273050Y-171450D01*
D14*
X476250Y-171450D02*
X476250Y-146050D01*
X348650Y-377675D02*
X346150Y-377675D01*
X348650Y-377675D02*
X348650Y-398175D01*
X276150Y-377675D02*
X273650Y-377675D01*
X273650Y-398175D01*
X348650Y-423175D02*
X348650Y-431975D01*
X273650Y-431975D01*
X273650Y-423175D01*
D11*
X353274Y-371098D02*
X353274Y-367604D01*
X353274Y-371098D02*
X353276Y-371158D01*
X353281Y-371218D01*
X353290Y-371278D01*
X353303Y-371337D01*
X353319Y-371395D01*
X353339Y-371452D01*
X353362Y-371508D01*
X353388Y-371562D01*
X353418Y-371614D01*
X353451Y-371665D01*
X353486Y-371713D01*
X353525Y-371760D01*
X353566Y-371804D01*
X353610Y-371845D01*
X353657Y-371884D01*
X353705Y-371919D01*
X353756Y-371952D01*
X353808Y-371982D01*
X353862Y-372008D01*
X353918Y-372031D01*
X353975Y-372051D01*
X354033Y-372067D01*
X354092Y-372080D01*
X354152Y-372089D01*
X354212Y-372094D01*
X354272Y-372096D01*
X354771Y-372096D01*
X351140Y-368602D02*
X349892Y-367604D01*
X349892Y-372096D01*
X348645Y-372096D02*
X351140Y-372096D01*
D10*
X179100Y-399400D02*
X173100Y-399400D01*
X179100Y-399400D02*
X179100Y-407400D01*
X157100Y-399400D02*
X151100Y-399400D01*
X151100Y-407400D01*
D11*
X166751Y-420047D02*
X166751Y-422043D01*
X166751Y-420047D02*
X166749Y-419978D01*
X166743Y-419910D01*
X166734Y-419842D01*
X166721Y-419774D01*
X166704Y-419707D01*
X166683Y-419642D01*
X166659Y-419577D01*
X166632Y-419514D01*
X166601Y-419453D01*
X166566Y-419393D01*
X166529Y-419336D01*
X166488Y-419280D01*
X166444Y-419227D01*
X166398Y-419177D01*
X166348Y-419129D01*
X166296Y-419084D01*
X166242Y-419041D01*
X166186Y-419002D01*
X166127Y-418966D01*
X166067Y-418933D01*
X166004Y-418904D01*
X165941Y-418878D01*
X165876Y-418856D01*
X165809Y-418837D01*
X165742Y-418822D01*
X165674Y-418811D01*
X165606Y-418803D01*
X165537Y-418799D01*
X165469Y-418799D01*
X165400Y-418803D01*
X165332Y-418811D01*
X165264Y-418822D01*
X165197Y-418837D01*
X165130Y-418856D01*
X165065Y-418878D01*
X165002Y-418904D01*
X164939Y-418933D01*
X164879Y-418966D01*
X164820Y-419002D01*
X164764Y-419041D01*
X164710Y-419084D01*
X164658Y-419129D01*
X164608Y-419177D01*
X164562Y-419227D01*
X164518Y-419280D01*
X164477Y-419336D01*
X164440Y-419393D01*
X164405Y-419453D01*
X164374Y-419514D01*
X164347Y-419577D01*
X164323Y-419642D01*
X164302Y-419707D01*
X164285Y-419774D01*
X164272Y-419842D01*
X164263Y-419910D01*
X164257Y-419978D01*
X164255Y-420047D01*
X164255Y-422043D01*
X164257Y-422112D01*
X164263Y-422180D01*
X164272Y-422248D01*
X164285Y-422316D01*
X164302Y-422383D01*
X164323Y-422448D01*
X164347Y-422513D01*
X164374Y-422576D01*
X164405Y-422637D01*
X164440Y-422697D01*
X164477Y-422754D01*
X164518Y-422810D01*
X164562Y-422863D01*
X164608Y-422913D01*
X164658Y-422961D01*
X164710Y-423006D01*
X164764Y-423049D01*
X164820Y-423088D01*
X164879Y-423124D01*
X164939Y-423157D01*
X165002Y-423186D01*
X165065Y-423212D01*
X165130Y-423234D01*
X165197Y-423253D01*
X165264Y-423268D01*
X165332Y-423279D01*
X165400Y-423287D01*
X165469Y-423291D01*
X165537Y-423291D01*
X165606Y-423287D01*
X165674Y-423279D01*
X165742Y-423268D01*
X165809Y-423253D01*
X165876Y-423234D01*
X165941Y-423212D01*
X166004Y-423186D01*
X166067Y-423157D01*
X166127Y-423124D01*
X166186Y-423088D01*
X166242Y-423049D01*
X166296Y-423006D01*
X166348Y-422961D01*
X166398Y-422913D01*
X166444Y-422863D01*
X166488Y-422810D01*
X166529Y-422754D01*
X166566Y-422697D01*
X166601Y-422637D01*
X166632Y-422576D01*
X166659Y-422513D01*
X166683Y-422448D01*
X166704Y-422383D01*
X166721Y-422316D01*
X166734Y-422248D01*
X166743Y-422180D01*
X166749Y-422112D01*
X166751Y-422043D01*
X164755Y-422293D02*
X163756Y-423291D01*
X162399Y-419797D02*
X161151Y-418799D01*
X161151Y-423291D01*
X159904Y-423291D02*
X162399Y-423291D01*
D13*
X82550Y-25400D02*
X57150Y-25400D01*
X82550Y-25400D02*
X82550Y-406400D01*
X57150Y-406400D01*
X57150Y-25400D01*
X209550Y-25400D02*
X234950Y-25400D01*
X234950Y-406400D01*
X209550Y-406400D01*
X209550Y-25400D01*
D15*
X346583Y-339024D02*
X346583Y-341621D01*
X346585Y-341720D01*
X346591Y-341820D01*
X346600Y-341919D01*
X346613Y-342017D01*
X346630Y-342115D01*
X346651Y-342213D01*
X346676Y-342309D01*
X346704Y-342404D01*
X346736Y-342498D01*
X346771Y-342591D01*
X346810Y-342683D01*
X346853Y-342773D01*
X346898Y-342861D01*
X346948Y-342948D01*
X347000Y-343032D01*
X347056Y-343115D01*
X347114Y-343195D01*
X347176Y-343273D01*
X347241Y-343348D01*
X347309Y-343421D01*
X347379Y-343491D01*
X347452Y-343559D01*
X347527Y-343624D01*
X347605Y-343686D01*
X347685Y-343744D01*
X347768Y-343800D01*
X347852Y-343852D01*
X347939Y-343902D01*
X348027Y-343947D01*
X348117Y-343990D01*
X348209Y-344029D01*
X348302Y-344064D01*
X348396Y-344096D01*
X348491Y-344124D01*
X348587Y-344149D01*
X348685Y-344170D01*
X348783Y-344187D01*
X348881Y-344200D01*
X348980Y-344209D01*
X349080Y-344215D01*
X349179Y-344217D01*
X355671Y-344217D01*
X355770Y-344215D01*
X355870Y-344209D01*
X355969Y-344200D01*
X356067Y-344187D01*
X356165Y-344170D01*
X356263Y-344149D01*
X356359Y-344124D01*
X356454Y-344096D01*
X356548Y-344064D01*
X356641Y-344029D01*
X356733Y-343990D01*
X356823Y-343947D01*
X356911Y-343902D01*
X356998Y-343852D01*
X357082Y-343800D01*
X357165Y-343744D01*
X357245Y-343686D01*
X357323Y-343624D01*
X357398Y-343559D01*
X357471Y-343491D01*
X357541Y-343421D01*
X357609Y-343348D01*
X357674Y-343273D01*
X357736Y-343195D01*
X357794Y-343115D01*
X357850Y-343032D01*
X357902Y-342948D01*
X357952Y-342861D01*
X357997Y-342773D01*
X358040Y-342683D01*
X358079Y-342591D01*
X358114Y-342499D01*
X358146Y-342404D01*
X358174Y-342309D01*
X358199Y-342213D01*
X358220Y-342115D01*
X358237Y-342017D01*
X358250Y-341919D01*
X358259Y-341820D01*
X358265Y-341720D01*
X358267Y-341621D01*
X358267Y-339024D01*
X358267Y-331089D02*
X358265Y-330982D01*
X358259Y-330876D01*
X358249Y-330770D01*
X358236Y-330664D01*
X358218Y-330558D01*
X358197Y-330454D01*
X358172Y-330350D01*
X358143Y-330247D01*
X358111Y-330146D01*
X358074Y-330046D01*
X358034Y-329947D01*
X357991Y-329849D01*
X357944Y-329753D01*
X357893Y-329659D01*
X357839Y-329567D01*
X357782Y-329477D01*
X357722Y-329389D01*
X357658Y-329304D01*
X357591Y-329221D01*
X357521Y-329140D01*
X357449Y-329062D01*
X357373Y-328986D01*
X357295Y-328914D01*
X357214Y-328844D01*
X357131Y-328777D01*
X357046Y-328713D01*
X356958Y-328653D01*
X356868Y-328596D01*
X356776Y-328542D01*
X356682Y-328491D01*
X356586Y-328444D01*
X356488Y-328401D01*
X356389Y-328361D01*
X356289Y-328324D01*
X356188Y-328292D01*
X356085Y-328263D01*
X355981Y-328238D01*
X355877Y-328217D01*
X355771Y-328199D01*
X355665Y-328186D01*
X355559Y-328176D01*
X355453Y-328170D01*
X355346Y-328168D01*
X358267Y-331089D02*
X358265Y-331210D01*
X358259Y-331331D01*
X358249Y-331451D01*
X358236Y-331572D01*
X358218Y-331691D01*
X358197Y-331811D01*
X358172Y-331929D01*
X358143Y-332046D01*
X358110Y-332163D01*
X358074Y-332278D01*
X358033Y-332392D01*
X357990Y-332505D01*
X357942Y-332617D01*
X357891Y-332726D01*
X357836Y-332834D01*
X357778Y-332941D01*
X357717Y-333045D01*
X357652Y-333147D01*
X357584Y-333247D01*
X357513Y-333345D01*
X357439Y-333441D01*
X357362Y-333534D01*
X357281Y-333624D01*
X357198Y-333712D01*
X357112Y-333797D01*
X357023Y-333880D01*
X356932Y-333959D01*
X356838Y-334036D01*
X356742Y-334109D01*
X356644Y-334179D01*
X356543Y-334246D01*
X356440Y-334310D01*
X356335Y-334371D01*
X356228Y-334428D01*
X356120Y-334481D01*
X356010Y-334531D01*
X355898Y-334577D01*
X355785Y-334620D01*
X355670Y-334659D01*
X353074Y-329142D02*
X353152Y-329063D01*
X353232Y-328987D01*
X353315Y-328914D01*
X353401Y-328844D01*
X353488Y-328777D01*
X353579Y-328713D01*
X353671Y-328653D01*
X353765Y-328595D01*
X353862Y-328541D01*
X353960Y-328491D01*
X354060Y-328444D01*
X354161Y-328400D01*
X354264Y-328360D01*
X354369Y-328324D01*
X354474Y-328292D01*
X354581Y-328263D01*
X354688Y-328238D01*
X354797Y-328216D01*
X354906Y-328199D01*
X355015Y-328185D01*
X355125Y-328176D01*
X355236Y-328170D01*
X355346Y-328168D01*
X353074Y-329142D02*
X346583Y-334659D01*
X346583Y-328168D01*
X352425Y-323230D02*
X352655Y-323227D01*
X352885Y-323219D01*
X353114Y-323205D01*
X353343Y-323186D01*
X353572Y-323161D01*
X353800Y-323131D01*
X354027Y-323096D01*
X354253Y-323055D01*
X354478Y-323009D01*
X354702Y-322957D01*
X354925Y-322900D01*
X355146Y-322838D01*
X355366Y-322770D01*
X355584Y-322697D01*
X355800Y-322619D01*
X356014Y-322536D01*
X356227Y-322448D01*
X356437Y-322355D01*
X356644Y-322256D01*
X356734Y-322223D01*
X356823Y-322187D01*
X356911Y-322147D01*
X356996Y-322103D01*
X357080Y-322056D01*
X357162Y-322006D01*
X357242Y-321952D01*
X357319Y-321896D01*
X357395Y-321836D01*
X357468Y-321773D01*
X357538Y-321708D01*
X357606Y-321639D01*
X357670Y-321568D01*
X357732Y-321495D01*
X357791Y-321419D01*
X357847Y-321341D01*
X357900Y-321260D01*
X357949Y-321178D01*
X357995Y-321094D01*
X358038Y-321007D01*
X358077Y-320920D01*
X358113Y-320830D01*
X358145Y-320740D01*
X358173Y-320648D01*
X358198Y-320555D01*
X358219Y-320461D01*
X358236Y-320367D01*
X358250Y-320272D01*
X358259Y-320176D01*
X358265Y-320080D01*
X358267Y-319984D01*
X358265Y-319888D01*
X358259Y-319792D01*
X358250Y-319696D01*
X358236Y-319601D01*
X358219Y-319507D01*
X358198Y-319413D01*
X358173Y-319320D01*
X358145Y-319228D01*
X358113Y-319138D01*
X358077Y-319048D01*
X358038Y-318961D01*
X357995Y-318874D01*
X357949Y-318790D01*
X357900Y-318708D01*
X357847Y-318627D01*
X357791Y-318549D01*
X357732Y-318473D01*
X357670Y-318400D01*
X357606Y-318329D01*
X357538Y-318260D01*
X357468Y-318195D01*
X357395Y-318132D01*
X357320Y-318072D01*
X357242Y-318016D01*
X357162Y-317962D01*
X357080Y-317912D01*
X356996Y-317865D01*
X356911Y-317822D01*
X356823Y-317781D01*
X356734Y-317745D01*
X356644Y-317712D01*
X356436Y-317613D01*
X356226Y-317520D01*
X356014Y-317432D01*
X355800Y-317349D01*
X355583Y-317271D01*
X355365Y-317198D01*
X355146Y-317130D01*
X354924Y-317068D01*
X354702Y-317011D01*
X354478Y-316959D01*
X354253Y-316913D01*
X354027Y-316872D01*
X353799Y-316837D01*
X353572Y-316807D01*
X353343Y-316782D01*
X353114Y-316763D01*
X352885Y-316749D01*
X352655Y-316741D01*
X352425Y-316738D01*
X352425Y-323229D02*
X352195Y-323226D01*
X351965Y-323218D01*
X351736Y-323204D01*
X351507Y-323185D01*
X351278Y-323160D01*
X351050Y-323130D01*
X350823Y-323095D01*
X350597Y-323054D01*
X350372Y-323008D01*
X350148Y-322956D01*
X349925Y-322899D01*
X349704Y-322837D01*
X349484Y-322769D01*
X349266Y-322696D01*
X349050Y-322618D01*
X348836Y-322535D01*
X348624Y-322447D01*
X348413Y-322354D01*
X348206Y-322255D01*
X348206Y-322256D02*
X348116Y-322223D01*
X348027Y-322187D01*
X347939Y-322146D01*
X347854Y-322103D01*
X347770Y-322056D01*
X347688Y-322006D01*
X347608Y-321952D01*
X347531Y-321896D01*
X347455Y-321836D01*
X347382Y-321773D01*
X347312Y-321708D01*
X347244Y-321639D01*
X347180Y-321568D01*
X347118Y-321495D01*
X347059Y-321419D01*
X347003Y-321341D01*
X346950Y-321260D01*
X346901Y-321178D01*
X346855Y-321094D01*
X346812Y-321007D01*
X346773Y-320920D01*
X346737Y-320830D01*
X346705Y-320740D01*
X346677Y-320648D01*
X346652Y-320555D01*
X346631Y-320461D01*
X346614Y-320367D01*
X346600Y-320272D01*
X346591Y-320176D01*
X346585Y-320080D01*
X346583Y-319984D01*
X348206Y-317712D02*
X348413Y-317613D01*
X348624Y-317520D01*
X348836Y-317432D01*
X349050Y-317349D01*
X349266Y-317271D01*
X349484Y-317198D01*
X349704Y-317130D01*
X349925Y-317068D01*
X350148Y-317011D01*
X350372Y-316959D01*
X350597Y-316913D01*
X350823Y-316872D01*
X351050Y-316837D01*
X351278Y-316807D01*
X351507Y-316782D01*
X351736Y-316763D01*
X351965Y-316749D01*
X352195Y-316741D01*
X352425Y-316738D01*
X348206Y-317712D02*
X348116Y-317745D01*
X348027Y-317781D01*
X347939Y-317822D01*
X347854Y-317865D01*
X347770Y-317912D01*
X347688Y-317962D01*
X347608Y-318016D01*
X347530Y-318072D01*
X347455Y-318132D01*
X347382Y-318195D01*
X347312Y-318260D01*
X347244Y-318329D01*
X347180Y-318400D01*
X347118Y-318473D01*
X347059Y-318549D01*
X347003Y-318627D01*
X346950Y-318708D01*
X346901Y-318790D01*
X346855Y-318874D01*
X346812Y-318961D01*
X346773Y-319048D01*
X346737Y-319138D01*
X346705Y-319228D01*
X346677Y-319320D01*
X346652Y-319413D01*
X346631Y-319507D01*
X346614Y-319601D01*
X346600Y-319696D01*
X346591Y-319792D01*
X346585Y-319888D01*
X346583Y-319984D01*
X349179Y-322580D02*
X355671Y-317387D01*
X346583Y-311799D02*
X346583Y-308554D01*
X346585Y-308441D01*
X346591Y-308328D01*
X346601Y-308215D01*
X346615Y-308102D01*
X346632Y-307990D01*
X346654Y-307879D01*
X346679Y-307769D01*
X346709Y-307659D01*
X346742Y-307551D01*
X346779Y-307444D01*
X346819Y-307338D01*
X346864Y-307234D01*
X346912Y-307131D01*
X346963Y-307030D01*
X347018Y-306931D01*
X347076Y-306834D01*
X347138Y-306739D01*
X347203Y-306646D01*
X347271Y-306556D01*
X347342Y-306468D01*
X347417Y-306382D01*
X347494Y-306299D01*
X347574Y-306219D01*
X347657Y-306142D01*
X347743Y-306067D01*
X347831Y-305996D01*
X347921Y-305928D01*
X348014Y-305863D01*
X348109Y-305801D01*
X348206Y-305743D01*
X348305Y-305688D01*
X348406Y-305637D01*
X348509Y-305589D01*
X348613Y-305544D01*
X348719Y-305504D01*
X348826Y-305467D01*
X348934Y-305434D01*
X349044Y-305404D01*
X349154Y-305379D01*
X349265Y-305357D01*
X349377Y-305340D01*
X349490Y-305326D01*
X349603Y-305316D01*
X349716Y-305310D01*
X349829Y-305308D01*
X349942Y-305310D01*
X350055Y-305316D01*
X350168Y-305326D01*
X350281Y-305340D01*
X350393Y-305357D01*
X350504Y-305379D01*
X350614Y-305404D01*
X350724Y-305434D01*
X350832Y-305467D01*
X350939Y-305504D01*
X351045Y-305544D01*
X351149Y-305589D01*
X351252Y-305637D01*
X351353Y-305688D01*
X351452Y-305743D01*
X351549Y-305801D01*
X351644Y-305863D01*
X351737Y-305928D01*
X351827Y-305996D01*
X351915Y-306067D01*
X352001Y-306142D01*
X352084Y-306219D01*
X352164Y-306299D01*
X352241Y-306382D01*
X352316Y-306468D01*
X352387Y-306556D01*
X352455Y-306646D01*
X352520Y-306739D01*
X352582Y-306834D01*
X352640Y-306931D01*
X352695Y-307030D01*
X352746Y-307131D01*
X352794Y-307234D01*
X352839Y-307338D01*
X352879Y-307444D01*
X352916Y-307551D01*
X352949Y-307659D01*
X352979Y-307769D01*
X353004Y-307879D01*
X353026Y-307990D01*
X353043Y-308102D01*
X353057Y-308215D01*
X353067Y-308328D01*
X353073Y-308441D01*
X353075Y-308554D01*
X358267Y-307904D02*
X358267Y-311799D01*
X358267Y-307904D02*
X358265Y-307803D01*
X358259Y-307703D01*
X358249Y-307603D01*
X358236Y-307503D01*
X358218Y-307404D01*
X358197Y-307305D01*
X358172Y-307208D01*
X358143Y-307111D01*
X358110Y-307016D01*
X358074Y-306922D01*
X358034Y-306830D01*
X357991Y-306739D01*
X357944Y-306650D01*
X357894Y-306563D01*
X357840Y-306477D01*
X357783Y-306394D01*
X357723Y-306314D01*
X357660Y-306235D01*
X357593Y-306159D01*
X357524Y-306086D01*
X357452Y-306016D01*
X357378Y-305948D01*
X357301Y-305883D01*
X357221Y-305822D01*
X357139Y-305763D01*
X357055Y-305708D01*
X356969Y-305656D01*
X356881Y-305607D01*
X356791Y-305562D01*
X356699Y-305520D01*
X356606Y-305482D01*
X356511Y-305448D01*
X356416Y-305417D01*
X356319Y-305390D01*
X356221Y-305367D01*
X356122Y-305347D01*
X356022Y-305332D01*
X355922Y-305320D01*
X355822Y-305312D01*
X355721Y-305308D01*
X355621Y-305308D01*
X355520Y-305312D01*
X355420Y-305320D01*
X355320Y-305332D01*
X355220Y-305347D01*
X355121Y-305367D01*
X355023Y-305390D01*
X354926Y-305417D01*
X354831Y-305448D01*
X354736Y-305482D01*
X354643Y-305520D01*
X354551Y-305562D01*
X354461Y-305607D01*
X354373Y-305656D01*
X354287Y-305708D01*
X354203Y-305763D01*
X354121Y-305822D01*
X354041Y-305883D01*
X353964Y-305948D01*
X353890Y-306016D01*
X353818Y-306086D01*
X353749Y-306159D01*
X353682Y-306235D01*
X353619Y-306314D01*
X353559Y-306394D01*
X353502Y-306477D01*
X353448Y-306563D01*
X353398Y-306650D01*
X353351Y-306739D01*
X353308Y-306830D01*
X353268Y-306922D01*
X353232Y-307016D01*
X353199Y-307111D01*
X353170Y-307208D01*
X353145Y-307305D01*
X353124Y-307404D01*
X353106Y-307503D01*
X353093Y-307603D01*
X353083Y-307703D01*
X353077Y-307803D01*
X353075Y-307904D01*
X353074Y-307904D02*
X353074Y-310501D01*
X302133Y-339024D02*
X302133Y-341621D01*
X302135Y-341720D01*
X302141Y-341820D01*
X302150Y-341919D01*
X302163Y-342017D01*
X302180Y-342115D01*
X302201Y-342213D01*
X302226Y-342309D01*
X302254Y-342404D01*
X302286Y-342498D01*
X302321Y-342591D01*
X302360Y-342683D01*
X302403Y-342773D01*
X302448Y-342861D01*
X302498Y-342948D01*
X302550Y-343032D01*
X302606Y-343115D01*
X302664Y-343195D01*
X302726Y-343273D01*
X302791Y-343348D01*
X302859Y-343421D01*
X302929Y-343491D01*
X303002Y-343559D01*
X303077Y-343624D01*
X303155Y-343686D01*
X303235Y-343744D01*
X303318Y-343800D01*
X303402Y-343852D01*
X303489Y-343902D01*
X303577Y-343947D01*
X303667Y-343990D01*
X303759Y-344029D01*
X303852Y-344064D01*
X303946Y-344096D01*
X304041Y-344124D01*
X304137Y-344149D01*
X304235Y-344170D01*
X304333Y-344187D01*
X304431Y-344200D01*
X304530Y-344209D01*
X304630Y-344215D01*
X304729Y-344217D01*
X311221Y-344217D01*
X311320Y-344215D01*
X311420Y-344209D01*
X311519Y-344200D01*
X311617Y-344187D01*
X311715Y-344170D01*
X311813Y-344149D01*
X311909Y-344124D01*
X312004Y-344096D01*
X312098Y-344064D01*
X312191Y-344029D01*
X312283Y-343990D01*
X312373Y-343947D01*
X312461Y-343902D01*
X312548Y-343852D01*
X312632Y-343800D01*
X312715Y-343744D01*
X312795Y-343686D01*
X312873Y-343624D01*
X312948Y-343559D01*
X313021Y-343491D01*
X313091Y-343421D01*
X313159Y-343348D01*
X313224Y-343273D01*
X313286Y-343195D01*
X313344Y-343115D01*
X313400Y-343032D01*
X313452Y-342948D01*
X313502Y-342861D01*
X313547Y-342773D01*
X313590Y-342683D01*
X313629Y-342591D01*
X313664Y-342499D01*
X313696Y-342404D01*
X313724Y-342309D01*
X313749Y-342213D01*
X313770Y-342115D01*
X313787Y-342017D01*
X313800Y-341919D01*
X313809Y-341820D01*
X313815Y-341720D01*
X313817Y-341621D01*
X313817Y-339024D01*
X313817Y-331089D02*
X313815Y-330982D01*
X313809Y-330876D01*
X313799Y-330770D01*
X313786Y-330664D01*
X313768Y-330558D01*
X313747Y-330454D01*
X313722Y-330350D01*
X313693Y-330247D01*
X313661Y-330146D01*
X313624Y-330046D01*
X313584Y-329947D01*
X313541Y-329849D01*
X313494Y-329753D01*
X313443Y-329659D01*
X313389Y-329567D01*
X313332Y-329477D01*
X313272Y-329389D01*
X313208Y-329304D01*
X313141Y-329221D01*
X313071Y-329140D01*
X312999Y-329062D01*
X312923Y-328986D01*
X312845Y-328914D01*
X312764Y-328844D01*
X312681Y-328777D01*
X312596Y-328713D01*
X312508Y-328653D01*
X312418Y-328596D01*
X312326Y-328542D01*
X312232Y-328491D01*
X312136Y-328444D01*
X312038Y-328401D01*
X311939Y-328361D01*
X311839Y-328324D01*
X311738Y-328292D01*
X311635Y-328263D01*
X311531Y-328238D01*
X311427Y-328217D01*
X311321Y-328199D01*
X311215Y-328186D01*
X311109Y-328176D01*
X311003Y-328170D01*
X310896Y-328168D01*
X313817Y-331089D02*
X313815Y-331210D01*
X313809Y-331331D01*
X313799Y-331451D01*
X313786Y-331572D01*
X313768Y-331691D01*
X313747Y-331811D01*
X313722Y-331929D01*
X313693Y-332046D01*
X313660Y-332163D01*
X313624Y-332278D01*
X313583Y-332392D01*
X313540Y-332505D01*
X313492Y-332617D01*
X313441Y-332726D01*
X313386Y-332834D01*
X313328Y-332941D01*
X313267Y-333045D01*
X313202Y-333147D01*
X313134Y-333247D01*
X313063Y-333345D01*
X312989Y-333441D01*
X312912Y-333534D01*
X312831Y-333624D01*
X312748Y-333712D01*
X312662Y-333797D01*
X312573Y-333880D01*
X312482Y-333959D01*
X312388Y-334036D01*
X312292Y-334109D01*
X312194Y-334179D01*
X312093Y-334246D01*
X311990Y-334310D01*
X311885Y-334371D01*
X311778Y-334428D01*
X311670Y-334481D01*
X311560Y-334531D01*
X311448Y-334577D01*
X311335Y-334620D01*
X311220Y-334659D01*
X308624Y-329142D02*
X308702Y-329063D01*
X308782Y-328987D01*
X308865Y-328914D01*
X308951Y-328844D01*
X309038Y-328777D01*
X309129Y-328713D01*
X309221Y-328653D01*
X309315Y-328595D01*
X309412Y-328541D01*
X309510Y-328491D01*
X309610Y-328444D01*
X309711Y-328400D01*
X309814Y-328360D01*
X309919Y-328324D01*
X310024Y-328292D01*
X310131Y-328263D01*
X310238Y-328238D01*
X310347Y-328216D01*
X310456Y-328199D01*
X310565Y-328185D01*
X310675Y-328176D01*
X310786Y-328170D01*
X310896Y-328168D01*
X308624Y-329142D02*
X302133Y-334659D01*
X302133Y-328168D01*
X307975Y-323230D02*
X308205Y-323227D01*
X308435Y-323219D01*
X308664Y-323205D01*
X308893Y-323186D01*
X309122Y-323161D01*
X309350Y-323131D01*
X309577Y-323096D01*
X309803Y-323055D01*
X310028Y-323009D01*
X310252Y-322957D01*
X310475Y-322900D01*
X310696Y-322838D01*
X310916Y-322770D01*
X311134Y-322697D01*
X311350Y-322619D01*
X311564Y-322536D01*
X311777Y-322448D01*
X311987Y-322355D01*
X312194Y-322256D01*
X312284Y-322223D01*
X312373Y-322187D01*
X312461Y-322147D01*
X312546Y-322103D01*
X312630Y-322056D01*
X312712Y-322006D01*
X312792Y-321952D01*
X312869Y-321896D01*
X312945Y-321836D01*
X313018Y-321773D01*
X313088Y-321708D01*
X313156Y-321639D01*
X313220Y-321568D01*
X313282Y-321495D01*
X313341Y-321419D01*
X313397Y-321341D01*
X313450Y-321260D01*
X313499Y-321178D01*
X313545Y-321094D01*
X313588Y-321007D01*
X313627Y-320920D01*
X313663Y-320830D01*
X313695Y-320740D01*
X313723Y-320648D01*
X313748Y-320555D01*
X313769Y-320461D01*
X313786Y-320367D01*
X313800Y-320272D01*
X313809Y-320176D01*
X313815Y-320080D01*
X313817Y-319984D01*
X313815Y-319888D01*
X313809Y-319792D01*
X313800Y-319696D01*
X313786Y-319601D01*
X313769Y-319507D01*
X313748Y-319413D01*
X313723Y-319320D01*
X313695Y-319228D01*
X313663Y-319138D01*
X313627Y-319048D01*
X313588Y-318961D01*
X313545Y-318874D01*
X313499Y-318790D01*
X313450Y-318708D01*
X313397Y-318627D01*
X313341Y-318549D01*
X313282Y-318473D01*
X313220Y-318400D01*
X313156Y-318329D01*
X313088Y-318260D01*
X313018Y-318195D01*
X312945Y-318132D01*
X312870Y-318072D01*
X312792Y-318016D01*
X312712Y-317962D01*
X312630Y-317912D01*
X312546Y-317865D01*
X312461Y-317822D01*
X312373Y-317781D01*
X312284Y-317745D01*
X312194Y-317712D01*
X311986Y-317613D01*
X311776Y-317520D01*
X311564Y-317432D01*
X311350Y-317349D01*
X311133Y-317271D01*
X310915Y-317198D01*
X310696Y-317130D01*
X310474Y-317068D01*
X310252Y-317011D01*
X310028Y-316959D01*
X309803Y-316913D01*
X309577Y-316872D01*
X309349Y-316837D01*
X309122Y-316807D01*
X308893Y-316782D01*
X308664Y-316763D01*
X308435Y-316749D01*
X308205Y-316741D01*
X307975Y-316738D01*
X307975Y-323229D02*
X307745Y-323226D01*
X307515Y-323218D01*
X307286Y-323204D01*
X307057Y-323185D01*
X306828Y-323160D01*
X306600Y-323130D01*
X306373Y-323095D01*
X306147Y-323054D01*
X305922Y-323008D01*
X305698Y-322956D01*
X305475Y-322899D01*
X305254Y-322837D01*
X305034Y-322769D01*
X304816Y-322696D01*
X304600Y-322618D01*
X304386Y-322535D01*
X304174Y-322447D01*
X303963Y-322354D01*
X303756Y-322255D01*
X303756Y-322256D02*
X303666Y-322223D01*
X303577Y-322187D01*
X303489Y-322146D01*
X303404Y-322103D01*
X303320Y-322056D01*
X303238Y-322006D01*
X303158Y-321952D01*
X303081Y-321896D01*
X303005Y-321836D01*
X302932Y-321773D01*
X302862Y-321708D01*
X302794Y-321639D01*
X302730Y-321568D01*
X302668Y-321495D01*
X302609Y-321419D01*
X302553Y-321341D01*
X302500Y-321260D01*
X302451Y-321178D01*
X302405Y-321094D01*
X302362Y-321007D01*
X302323Y-320920D01*
X302287Y-320830D01*
X302255Y-320740D01*
X302227Y-320648D01*
X302202Y-320555D01*
X302181Y-320461D01*
X302164Y-320367D01*
X302150Y-320272D01*
X302141Y-320176D01*
X302135Y-320080D01*
X302133Y-319984D01*
X303756Y-317712D02*
X303963Y-317613D01*
X304174Y-317520D01*
X304386Y-317432D01*
X304600Y-317349D01*
X304816Y-317271D01*
X305034Y-317198D01*
X305254Y-317130D01*
X305475Y-317068D01*
X305698Y-317011D01*
X305922Y-316959D01*
X306147Y-316913D01*
X306373Y-316872D01*
X306600Y-316837D01*
X306828Y-316807D01*
X307057Y-316782D01*
X307286Y-316763D01*
X307515Y-316749D01*
X307745Y-316741D01*
X307975Y-316738D01*
X303756Y-317712D02*
X303666Y-317745D01*
X303577Y-317781D01*
X303489Y-317822D01*
X303404Y-317865D01*
X303320Y-317912D01*
X303238Y-317962D01*
X303158Y-318016D01*
X303080Y-318072D01*
X303005Y-318132D01*
X302932Y-318195D01*
X302862Y-318260D01*
X302794Y-318329D01*
X302730Y-318400D01*
X302668Y-318473D01*
X302609Y-318549D01*
X302553Y-318627D01*
X302500Y-318708D01*
X302451Y-318790D01*
X302405Y-318874D01*
X302362Y-318961D01*
X302323Y-319048D01*
X302287Y-319138D01*
X302255Y-319228D01*
X302227Y-319320D01*
X302202Y-319413D01*
X302181Y-319507D01*
X302164Y-319601D01*
X302150Y-319696D01*
X302141Y-319792D01*
X302135Y-319888D01*
X302133Y-319984D01*
X304729Y-322580D02*
X311221Y-317387D01*
X302133Y-311799D02*
X302133Y-307904D01*
X302135Y-307805D01*
X302141Y-307705D01*
X302150Y-307606D01*
X302163Y-307508D01*
X302180Y-307410D01*
X302201Y-307312D01*
X302226Y-307216D01*
X302254Y-307121D01*
X302286Y-307027D01*
X302321Y-306934D01*
X302360Y-306842D01*
X302403Y-306752D01*
X302448Y-306664D01*
X302498Y-306577D01*
X302550Y-306493D01*
X302606Y-306410D01*
X302664Y-306330D01*
X302726Y-306252D01*
X302791Y-306177D01*
X302859Y-306104D01*
X302929Y-306034D01*
X303002Y-305966D01*
X303077Y-305901D01*
X303155Y-305839D01*
X303235Y-305781D01*
X303318Y-305725D01*
X303402Y-305673D01*
X303489Y-305623D01*
X303577Y-305578D01*
X303667Y-305535D01*
X303759Y-305496D01*
X303852Y-305461D01*
X303946Y-305429D01*
X304041Y-305401D01*
X304137Y-305376D01*
X304235Y-305355D01*
X304333Y-305338D01*
X304431Y-305325D01*
X304530Y-305316D01*
X304630Y-305310D01*
X304729Y-305308D01*
X306028Y-305308D01*
X306127Y-305310D01*
X306227Y-305316D01*
X306326Y-305325D01*
X306424Y-305338D01*
X306522Y-305355D01*
X306620Y-305376D01*
X306716Y-305401D01*
X306811Y-305429D01*
X306905Y-305461D01*
X306998Y-305496D01*
X307090Y-305535D01*
X307180Y-305578D01*
X307268Y-305623D01*
X307355Y-305673D01*
X307439Y-305725D01*
X307522Y-305781D01*
X307602Y-305839D01*
X307680Y-305901D01*
X307755Y-305966D01*
X307828Y-306034D01*
X307898Y-306104D01*
X307966Y-306177D01*
X308031Y-306252D01*
X308093Y-306330D01*
X308151Y-306410D01*
X308207Y-306493D01*
X308259Y-306577D01*
X308309Y-306664D01*
X308354Y-306752D01*
X308397Y-306842D01*
X308436Y-306934D01*
X308471Y-307027D01*
X308503Y-307121D01*
X308531Y-307216D01*
X308556Y-307312D01*
X308577Y-307410D01*
X308594Y-307508D01*
X308607Y-307606D01*
X308616Y-307705D01*
X308622Y-307805D01*
X308624Y-307904D01*
X308624Y-311799D01*
X313817Y-311799D01*
X313817Y-305308D01*
X283083Y-257246D02*
X283083Y-254649D01*
X283083Y-257246D02*
X283085Y-257345D01*
X283091Y-257445D01*
X283100Y-257544D01*
X283113Y-257642D01*
X283130Y-257740D01*
X283151Y-257838D01*
X283176Y-257934D01*
X283204Y-258029D01*
X283236Y-258123D01*
X283271Y-258216D01*
X283310Y-258308D01*
X283353Y-258398D01*
X283398Y-258486D01*
X283448Y-258573D01*
X283500Y-258657D01*
X283556Y-258740D01*
X283614Y-258820D01*
X283676Y-258898D01*
X283741Y-258973D01*
X283809Y-259046D01*
X283879Y-259116D01*
X283952Y-259184D01*
X284027Y-259249D01*
X284105Y-259311D01*
X284185Y-259369D01*
X284268Y-259425D01*
X284352Y-259477D01*
X284439Y-259527D01*
X284527Y-259572D01*
X284617Y-259615D01*
X284709Y-259654D01*
X284802Y-259689D01*
X284896Y-259721D01*
X284991Y-259749D01*
X285087Y-259774D01*
X285185Y-259795D01*
X285283Y-259812D01*
X285381Y-259825D01*
X285480Y-259834D01*
X285580Y-259840D01*
X285679Y-259842D01*
X292171Y-259842D01*
X292270Y-259840D01*
X292370Y-259834D01*
X292469Y-259825D01*
X292567Y-259812D01*
X292665Y-259795D01*
X292763Y-259774D01*
X292859Y-259749D01*
X292954Y-259721D01*
X293048Y-259689D01*
X293141Y-259654D01*
X293233Y-259615D01*
X293323Y-259572D01*
X293411Y-259527D01*
X293498Y-259477D01*
X293582Y-259425D01*
X293665Y-259369D01*
X293745Y-259311D01*
X293823Y-259249D01*
X293898Y-259184D01*
X293971Y-259116D01*
X294041Y-259046D01*
X294109Y-258973D01*
X294174Y-258898D01*
X294236Y-258820D01*
X294294Y-258740D01*
X294350Y-258657D01*
X294402Y-258573D01*
X294452Y-258486D01*
X294497Y-258398D01*
X294540Y-258308D01*
X294579Y-258216D01*
X294614Y-258124D01*
X294646Y-258029D01*
X294674Y-257934D01*
X294699Y-257838D01*
X294720Y-257740D01*
X294737Y-257642D01*
X294750Y-257544D01*
X294759Y-257445D01*
X294765Y-257345D01*
X294767Y-257246D01*
X294767Y-254649D01*
X294767Y-246714D02*
X294765Y-246607D01*
X294759Y-246501D01*
X294749Y-246395D01*
X294736Y-246289D01*
X294718Y-246183D01*
X294697Y-246079D01*
X294672Y-245975D01*
X294643Y-245872D01*
X294611Y-245771D01*
X294574Y-245671D01*
X294534Y-245572D01*
X294491Y-245474D01*
X294444Y-245378D01*
X294393Y-245284D01*
X294339Y-245192D01*
X294282Y-245102D01*
X294222Y-245014D01*
X294158Y-244929D01*
X294091Y-244846D01*
X294021Y-244765D01*
X293949Y-244687D01*
X293873Y-244611D01*
X293795Y-244539D01*
X293714Y-244469D01*
X293631Y-244402D01*
X293546Y-244338D01*
X293458Y-244278D01*
X293368Y-244221D01*
X293276Y-244167D01*
X293182Y-244116D01*
X293086Y-244069D01*
X292988Y-244026D01*
X292889Y-243986D01*
X292789Y-243949D01*
X292688Y-243917D01*
X292585Y-243888D01*
X292481Y-243863D01*
X292377Y-243842D01*
X292271Y-243824D01*
X292165Y-243811D01*
X292059Y-243801D01*
X291953Y-243795D01*
X291846Y-243793D01*
X294767Y-246714D02*
X294765Y-246835D01*
X294759Y-246956D01*
X294749Y-247076D01*
X294736Y-247197D01*
X294718Y-247316D01*
X294697Y-247436D01*
X294672Y-247554D01*
X294643Y-247671D01*
X294610Y-247788D01*
X294574Y-247903D01*
X294533Y-248017D01*
X294490Y-248130D01*
X294442Y-248242D01*
X294391Y-248351D01*
X294336Y-248459D01*
X294278Y-248566D01*
X294217Y-248670D01*
X294152Y-248772D01*
X294084Y-248872D01*
X294013Y-248970D01*
X293939Y-249066D01*
X293862Y-249159D01*
X293781Y-249249D01*
X293698Y-249337D01*
X293612Y-249422D01*
X293523Y-249505D01*
X293432Y-249584D01*
X293338Y-249661D01*
X293242Y-249734D01*
X293144Y-249804D01*
X293043Y-249871D01*
X292940Y-249935D01*
X292835Y-249996D01*
X292728Y-250053D01*
X292620Y-250106D01*
X292510Y-250156D01*
X292398Y-250202D01*
X292285Y-250245D01*
X292170Y-250284D01*
X289574Y-244767D02*
X289652Y-244688D01*
X289732Y-244612D01*
X289815Y-244539D01*
X289901Y-244469D01*
X289988Y-244402D01*
X290079Y-244338D01*
X290171Y-244278D01*
X290265Y-244220D01*
X290362Y-244166D01*
X290460Y-244116D01*
X290560Y-244069D01*
X290661Y-244025D01*
X290764Y-243985D01*
X290869Y-243949D01*
X290974Y-243917D01*
X291081Y-243888D01*
X291188Y-243863D01*
X291297Y-243841D01*
X291406Y-243824D01*
X291515Y-243810D01*
X291625Y-243801D01*
X291736Y-243795D01*
X291846Y-243793D01*
X289574Y-244766D02*
X283083Y-250284D01*
X283083Y-243793D01*
X288925Y-238854D02*
X289155Y-238851D01*
X289385Y-238843D01*
X289614Y-238829D01*
X289843Y-238810D01*
X290072Y-238785D01*
X290300Y-238755D01*
X290527Y-238720D01*
X290753Y-238679D01*
X290978Y-238633D01*
X291202Y-238581D01*
X291425Y-238524D01*
X291646Y-238462D01*
X291866Y-238394D01*
X292084Y-238321D01*
X292300Y-238243D01*
X292514Y-238160D01*
X292727Y-238072D01*
X292937Y-237979D01*
X293144Y-237880D01*
X293234Y-237847D01*
X293323Y-237811D01*
X293411Y-237771D01*
X293496Y-237727D01*
X293580Y-237680D01*
X293662Y-237630D01*
X293742Y-237576D01*
X293819Y-237520D01*
X293895Y-237460D01*
X293968Y-237397D01*
X294038Y-237332D01*
X294106Y-237263D01*
X294170Y-237192D01*
X294232Y-237119D01*
X294291Y-237043D01*
X294347Y-236965D01*
X294400Y-236884D01*
X294449Y-236802D01*
X294495Y-236718D01*
X294538Y-236631D01*
X294577Y-236544D01*
X294613Y-236454D01*
X294645Y-236364D01*
X294673Y-236272D01*
X294698Y-236179D01*
X294719Y-236085D01*
X294736Y-235991D01*
X294750Y-235896D01*
X294759Y-235800D01*
X294765Y-235704D01*
X294767Y-235608D01*
X294765Y-235512D01*
X294759Y-235416D01*
X294750Y-235320D01*
X294736Y-235225D01*
X294719Y-235131D01*
X294698Y-235037D01*
X294673Y-234944D01*
X294645Y-234852D01*
X294613Y-234762D01*
X294577Y-234672D01*
X294538Y-234585D01*
X294495Y-234498D01*
X294449Y-234414D01*
X294400Y-234332D01*
X294347Y-234251D01*
X294291Y-234173D01*
X294232Y-234097D01*
X294170Y-234024D01*
X294106Y-233953D01*
X294038Y-233884D01*
X293968Y-233819D01*
X293895Y-233756D01*
X293820Y-233696D01*
X293742Y-233640D01*
X293662Y-233586D01*
X293580Y-233536D01*
X293496Y-233489D01*
X293411Y-233446D01*
X293323Y-233405D01*
X293234Y-233369D01*
X293144Y-233336D01*
X293144Y-233337D02*
X292936Y-233238D01*
X292726Y-233145D01*
X292514Y-233057D01*
X292300Y-232974D01*
X292083Y-232896D01*
X291865Y-232823D01*
X291646Y-232755D01*
X291424Y-232693D01*
X291202Y-232636D01*
X290978Y-232584D01*
X290753Y-232538D01*
X290527Y-232497D01*
X290299Y-232462D01*
X290072Y-232432D01*
X289843Y-232407D01*
X289614Y-232388D01*
X289385Y-232374D01*
X289155Y-232366D01*
X288925Y-232363D01*
X288925Y-238854D02*
X288695Y-238851D01*
X288465Y-238843D01*
X288236Y-238829D01*
X288007Y-238810D01*
X287778Y-238785D01*
X287550Y-238755D01*
X287323Y-238720D01*
X287097Y-238679D01*
X286872Y-238633D01*
X286648Y-238581D01*
X286425Y-238524D01*
X286204Y-238462D01*
X285984Y-238394D01*
X285766Y-238321D01*
X285550Y-238243D01*
X285336Y-238160D01*
X285124Y-238072D01*
X284913Y-237979D01*
X284706Y-237880D01*
X284616Y-237847D01*
X284527Y-237811D01*
X284439Y-237770D01*
X284354Y-237727D01*
X284270Y-237680D01*
X284188Y-237630D01*
X284108Y-237576D01*
X284031Y-237520D01*
X283955Y-237460D01*
X283882Y-237397D01*
X283812Y-237332D01*
X283744Y-237263D01*
X283680Y-237192D01*
X283618Y-237119D01*
X283559Y-237043D01*
X283503Y-236965D01*
X283450Y-236884D01*
X283401Y-236802D01*
X283355Y-236718D01*
X283312Y-236631D01*
X283273Y-236544D01*
X283237Y-236454D01*
X283205Y-236364D01*
X283177Y-236272D01*
X283152Y-236179D01*
X283131Y-236085D01*
X283114Y-235991D01*
X283100Y-235896D01*
X283091Y-235800D01*
X283085Y-235704D01*
X283083Y-235608D01*
X284706Y-233336D02*
X284913Y-233237D01*
X285124Y-233144D01*
X285336Y-233056D01*
X285550Y-232973D01*
X285766Y-232895D01*
X285984Y-232822D01*
X286204Y-232754D01*
X286425Y-232692D01*
X286648Y-232635D01*
X286872Y-232583D01*
X287097Y-232537D01*
X287323Y-232496D01*
X287550Y-232461D01*
X287778Y-232431D01*
X288007Y-232406D01*
X288236Y-232387D01*
X288465Y-232373D01*
X288695Y-232365D01*
X288925Y-232362D01*
X284706Y-233336D02*
X284616Y-233369D01*
X284527Y-233405D01*
X284439Y-233446D01*
X284354Y-233489D01*
X284270Y-233536D01*
X284188Y-233586D01*
X284108Y-233640D01*
X284030Y-233696D01*
X283955Y-233756D01*
X283882Y-233819D01*
X283812Y-233884D01*
X283744Y-233953D01*
X283680Y-234024D01*
X283618Y-234097D01*
X283559Y-234173D01*
X283503Y-234251D01*
X283450Y-234332D01*
X283401Y-234414D01*
X283355Y-234498D01*
X283312Y-234585D01*
X283273Y-234672D01*
X283237Y-234762D01*
X283205Y-234852D01*
X283177Y-234944D01*
X283152Y-235037D01*
X283131Y-235131D01*
X283114Y-235225D01*
X283100Y-235320D01*
X283091Y-235416D01*
X283085Y-235512D01*
X283083Y-235608D01*
X285679Y-238205D02*
X292171Y-233012D01*
X294767Y-223854D02*
X294765Y-223747D01*
X294759Y-223641D01*
X294749Y-223535D01*
X294736Y-223429D01*
X294718Y-223323D01*
X294697Y-223219D01*
X294672Y-223115D01*
X294643Y-223012D01*
X294611Y-222911D01*
X294574Y-222811D01*
X294534Y-222712D01*
X294491Y-222614D01*
X294444Y-222518D01*
X294393Y-222424D01*
X294339Y-222332D01*
X294282Y-222242D01*
X294222Y-222154D01*
X294158Y-222069D01*
X294091Y-221986D01*
X294021Y-221905D01*
X293949Y-221827D01*
X293873Y-221751D01*
X293795Y-221679D01*
X293714Y-221609D01*
X293631Y-221542D01*
X293546Y-221478D01*
X293458Y-221418D01*
X293368Y-221361D01*
X293276Y-221307D01*
X293182Y-221256D01*
X293086Y-221209D01*
X292988Y-221166D01*
X292889Y-221126D01*
X292789Y-221089D01*
X292688Y-221057D01*
X292585Y-221028D01*
X292481Y-221003D01*
X292377Y-220982D01*
X292271Y-220964D01*
X292165Y-220951D01*
X292059Y-220941D01*
X291953Y-220935D01*
X291846Y-220933D01*
X294767Y-223854D02*
X294765Y-223975D01*
X294759Y-224096D01*
X294749Y-224216D01*
X294736Y-224337D01*
X294718Y-224456D01*
X294697Y-224576D01*
X294672Y-224694D01*
X294643Y-224811D01*
X294610Y-224928D01*
X294574Y-225043D01*
X294533Y-225157D01*
X294490Y-225270D01*
X294442Y-225382D01*
X294391Y-225491D01*
X294336Y-225599D01*
X294278Y-225706D01*
X294217Y-225810D01*
X294152Y-225912D01*
X294084Y-226012D01*
X294013Y-226110D01*
X293939Y-226206D01*
X293862Y-226299D01*
X293781Y-226389D01*
X293698Y-226477D01*
X293612Y-226562D01*
X293523Y-226645D01*
X293432Y-226724D01*
X293338Y-226801D01*
X293242Y-226874D01*
X293144Y-226944D01*
X293043Y-227011D01*
X292940Y-227075D01*
X292835Y-227136D01*
X292728Y-227193D01*
X292620Y-227246D01*
X292510Y-227296D01*
X292398Y-227342D01*
X292285Y-227385D01*
X292170Y-227424D01*
X289574Y-221907D02*
X289652Y-221828D01*
X289732Y-221752D01*
X289815Y-221679D01*
X289901Y-221609D01*
X289988Y-221542D01*
X290079Y-221478D01*
X290171Y-221418D01*
X290265Y-221360D01*
X290362Y-221306D01*
X290460Y-221256D01*
X290560Y-221209D01*
X290661Y-221165D01*
X290764Y-221125D01*
X290869Y-221089D01*
X290974Y-221057D01*
X291081Y-221028D01*
X291188Y-221003D01*
X291297Y-220981D01*
X291406Y-220964D01*
X291515Y-220950D01*
X291625Y-220941D01*
X291736Y-220935D01*
X291846Y-220933D01*
X289574Y-221906D02*
X283083Y-227424D01*
X283083Y-220933D01*
D16*
X411734Y-229108D02*
X439166Y-229108D01*
X439166Y-278892D02*
X422402Y-278892D01*
X411734Y-278892D01*
D17*
X422402Y-278892D02*
X422408Y-278782D01*
X422419Y-278672D01*
X422433Y-278563D01*
X422452Y-278455D01*
X422474Y-278347D01*
X422500Y-278240D01*
X422530Y-278134D01*
X422564Y-278029D01*
X422602Y-277925D01*
X422643Y-277823D01*
X422688Y-277723D01*
X422737Y-277624D01*
X422789Y-277527D01*
X422844Y-277432D01*
X422903Y-277339D01*
X422966Y-277248D01*
X423031Y-277159D01*
X423100Y-277073D01*
X423172Y-276990D01*
X423247Y-276909D01*
X423324Y-276830D01*
X423405Y-276755D01*
X423488Y-276683D01*
X423573Y-276613D01*
X423661Y-276547D01*
X423752Y-276484D01*
X423844Y-276425D01*
X423939Y-276368D01*
X424036Y-276316D01*
X424134Y-276266D01*
X424235Y-276221D01*
X424336Y-276178D01*
X424440Y-276140D01*
X424544Y-276106D01*
X424650Y-276075D01*
X424757Y-276048D01*
X424865Y-276025D01*
X424973Y-276006D01*
X425082Y-275990D01*
X425192Y-275979D01*
X425302Y-275972D01*
X425412Y-275968D01*
X425522Y-275969D01*
X425632Y-275973D01*
X425742Y-275982D01*
X425851Y-275995D01*
X425960Y-276011D01*
X426069Y-276031D01*
X426176Y-276056D01*
X426282Y-276084D01*
X426388Y-276116D01*
X426492Y-276151D01*
X426595Y-276191D01*
X426696Y-276234D01*
X426796Y-276281D01*
X426894Y-276331D01*
X426990Y-276385D01*
X427084Y-276443D01*
X427176Y-276503D01*
X427266Y-276567D01*
X427353Y-276634D01*
X427438Y-276705D01*
X427520Y-276778D01*
X427600Y-276854D01*
X427677Y-276933D01*
X427750Y-277015D01*
X427821Y-277099D01*
X427889Y-277186D01*
X427954Y-277275D01*
X428015Y-277367D01*
X428073Y-277461D01*
X428127Y-277556D01*
X428179Y-277654D01*
X428226Y-277753D01*
X428270Y-277854D01*
X428310Y-277957D01*
X428347Y-278061D01*
X428379Y-278166D01*
X428408Y-278272D01*
X428433Y-278380D01*
X428454Y-278488D01*
X428472Y-278597D01*
X428485Y-278706D01*
X428494Y-278816D01*
X428500Y-278926D01*
X428501Y-279036D01*
X428498Y-279146D01*
D18*
X396459Y-282392D02*
X396459Y-286371D01*
X396459Y-282392D02*
X398780Y-279407D01*
X396459Y-282392D02*
X394137Y-279407D01*
X396459Y-282392D02*
X400106Y-283718D01*
X396459Y-282392D02*
X392811Y-283718D01*
D10*
X378714Y-288685D02*
X378714Y-302260D01*
X378714Y-288685D02*
X378716Y-288542D01*
X378722Y-288400D01*
X378732Y-288258D01*
X378745Y-288116D01*
X378763Y-287974D01*
X378784Y-287833D01*
X378809Y-287693D01*
X378838Y-287553D01*
X378871Y-287414D01*
X378908Y-287276D01*
X378948Y-287140D01*
X378992Y-287004D01*
X379040Y-286870D01*
X379091Y-286737D01*
X379146Y-286605D01*
X379205Y-286475D01*
X379267Y-286347D01*
X379333Y-286220D01*
X379402Y-286095D01*
X379474Y-285972D01*
X379550Y-285851D01*
X379629Y-285733D01*
X379711Y-285616D01*
X379797Y-285502D01*
X379885Y-285390D01*
X379977Y-285281D01*
X380071Y-285174D01*
X380168Y-285070D01*
X380268Y-284968D01*
X380371Y-284869D01*
X380477Y-284773D01*
X380585Y-284680D01*
X380696Y-284590D01*
X380809Y-284503D01*
X380924Y-284420D01*
X381042Y-284339D01*
X381162Y-284262D01*
X381283Y-284187D01*
X381407Y-284117D01*
X381533Y-284049D01*
X381661Y-283985D01*
X381790Y-283925D01*
X381921Y-283868D01*
X382053Y-283815D01*
X382187Y-283765D01*
X382322Y-283720D01*
X382458Y-283677D01*
X382595Y-283639D01*
X382734Y-283604D01*
X382873Y-283573D01*
X383013Y-283546D01*
X383153Y-283523D01*
X383295Y-283503D01*
X383437Y-283488D01*
X383579Y-283476D01*
X383721Y-283468D01*
X383864Y-283464D01*
X384006Y-283464D01*
X384149Y-283468D01*
X384291Y-283476D01*
X384433Y-283488D01*
X384575Y-283503D01*
X384717Y-283523D01*
X384857Y-283546D01*
X384997Y-283573D01*
X385136Y-283604D01*
X385275Y-283639D01*
X385412Y-283677D01*
X385548Y-283720D01*
X385683Y-283765D01*
X385817Y-283815D01*
X385949Y-283868D01*
X386080Y-283925D01*
X386209Y-283985D01*
X386337Y-284049D01*
X386463Y-284117D01*
X386587Y-284187D01*
X386708Y-284262D01*
X386828Y-284339D01*
X386946Y-284420D01*
X387061Y-284503D01*
X387174Y-284590D01*
X387285Y-284680D01*
X387393Y-284773D01*
X387499Y-284869D01*
X387602Y-284968D01*
X387702Y-285070D01*
X387799Y-285174D01*
X387893Y-285281D01*
X387985Y-285390D01*
X388073Y-285502D01*
X388159Y-285616D01*
X388241Y-285733D01*
X388320Y-285851D01*
X388396Y-285972D01*
X388468Y-286095D01*
X388537Y-286220D01*
X388603Y-286347D01*
X388665Y-286475D01*
X388724Y-286605D01*
X388779Y-286737D01*
X388830Y-286870D01*
X388878Y-287004D01*
X388922Y-287140D01*
X388962Y-287276D01*
X388999Y-287414D01*
X389032Y-287553D01*
X389061Y-287693D01*
X389086Y-287833D01*
X389107Y-287974D01*
X389125Y-288116D01*
X389138Y-288258D01*
X389148Y-288400D01*
X389154Y-288542D01*
X389156Y-288685D01*
X389156Y-302260D01*
X397143Y-298083D02*
X402364Y-302260D01*
X402364Y-283464D01*
X397143Y-283464D02*
X407586Y-283464D01*
D15*
X336042Y-220285D02*
X324358Y-220285D01*
X336042Y-220285D02*
X336042Y-217040D01*
X336040Y-216927D01*
X336034Y-216814D01*
X336024Y-216701D01*
X336010Y-216588D01*
X335993Y-216476D01*
X335971Y-216365D01*
X335946Y-216255D01*
X335916Y-216145D01*
X335883Y-216037D01*
X335846Y-215930D01*
X335806Y-215824D01*
X335761Y-215720D01*
X335713Y-215617D01*
X335662Y-215516D01*
X335607Y-215417D01*
X335549Y-215320D01*
X335487Y-215225D01*
X335422Y-215132D01*
X335354Y-215042D01*
X335283Y-214954D01*
X335208Y-214868D01*
X335131Y-214785D01*
X335051Y-214705D01*
X334968Y-214628D01*
X334882Y-214553D01*
X334794Y-214482D01*
X334704Y-214414D01*
X334611Y-214349D01*
X334516Y-214287D01*
X334419Y-214229D01*
X334320Y-214174D01*
X334219Y-214123D01*
X334116Y-214075D01*
X334012Y-214030D01*
X333906Y-213990D01*
X333799Y-213953D01*
X333691Y-213920D01*
X333581Y-213890D01*
X333471Y-213865D01*
X333360Y-213843D01*
X333248Y-213826D01*
X333135Y-213812D01*
X333022Y-213802D01*
X332909Y-213796D01*
X332796Y-213794D01*
X332683Y-213796D01*
X332570Y-213802D01*
X332457Y-213812D01*
X332344Y-213826D01*
X332232Y-213843D01*
X332121Y-213865D01*
X332011Y-213890D01*
X331901Y-213920D01*
X331793Y-213953D01*
X331686Y-213990D01*
X331580Y-214030D01*
X331476Y-214075D01*
X331373Y-214123D01*
X331272Y-214174D01*
X331173Y-214229D01*
X331076Y-214287D01*
X330981Y-214349D01*
X330888Y-214414D01*
X330798Y-214482D01*
X330710Y-214553D01*
X330624Y-214628D01*
X330541Y-214705D01*
X330461Y-214785D01*
X330384Y-214868D01*
X330309Y-214954D01*
X330238Y-215042D01*
X330170Y-215132D01*
X330105Y-215225D01*
X330043Y-215320D01*
X329985Y-215417D01*
X329930Y-215516D01*
X329879Y-215617D01*
X329831Y-215720D01*
X329786Y-215824D01*
X329746Y-215930D01*
X329709Y-216037D01*
X329676Y-216145D01*
X329646Y-216255D01*
X329621Y-216365D01*
X329599Y-216476D01*
X329582Y-216588D01*
X329568Y-216701D01*
X329558Y-216814D01*
X329552Y-216927D01*
X329550Y-217040D01*
X329551Y-217040D02*
X329551Y-220285D01*
X329551Y-216391D02*
X324358Y-213794D01*
X333446Y-208929D02*
X336042Y-205684D01*
X324358Y-205684D01*
X324358Y-208929D02*
X324358Y-202438D01*
X327604Y-197500D02*
X327717Y-197498D01*
X327830Y-197492D01*
X327943Y-197482D01*
X328056Y-197468D01*
X328168Y-197451D01*
X328279Y-197429D01*
X328389Y-197404D01*
X328499Y-197374D01*
X328607Y-197341D01*
X328714Y-197304D01*
X328820Y-197264D01*
X328924Y-197219D01*
X329027Y-197171D01*
X329128Y-197120D01*
X329227Y-197065D01*
X329324Y-197007D01*
X329419Y-196945D01*
X329512Y-196880D01*
X329602Y-196812D01*
X329690Y-196741D01*
X329776Y-196666D01*
X329859Y-196589D01*
X329939Y-196509D01*
X330016Y-196426D01*
X330091Y-196340D01*
X330162Y-196252D01*
X330230Y-196162D01*
X330295Y-196069D01*
X330357Y-195974D01*
X330415Y-195877D01*
X330470Y-195778D01*
X330521Y-195677D01*
X330569Y-195574D01*
X330614Y-195470D01*
X330654Y-195364D01*
X330691Y-195257D01*
X330724Y-195149D01*
X330754Y-195039D01*
X330779Y-194929D01*
X330801Y-194818D01*
X330818Y-194706D01*
X330832Y-194593D01*
X330842Y-194480D01*
X330848Y-194367D01*
X330850Y-194254D01*
X330848Y-194141D01*
X330842Y-194028D01*
X330832Y-193915D01*
X330818Y-193802D01*
X330801Y-193690D01*
X330779Y-193579D01*
X330754Y-193469D01*
X330724Y-193359D01*
X330691Y-193251D01*
X330654Y-193144D01*
X330614Y-193038D01*
X330569Y-192934D01*
X330521Y-192831D01*
X330470Y-192730D01*
X330415Y-192631D01*
X330357Y-192534D01*
X330295Y-192439D01*
X330230Y-192346D01*
X330162Y-192256D01*
X330091Y-192168D01*
X330016Y-192082D01*
X329939Y-191999D01*
X329859Y-191919D01*
X329776Y-191842D01*
X329690Y-191767D01*
X329602Y-191696D01*
X329512Y-191628D01*
X329419Y-191563D01*
X329324Y-191501D01*
X329227Y-191443D01*
X329128Y-191388D01*
X329027Y-191337D01*
X328924Y-191289D01*
X328820Y-191244D01*
X328714Y-191204D01*
X328607Y-191167D01*
X328499Y-191134D01*
X328389Y-191104D01*
X328279Y-191079D01*
X328168Y-191057D01*
X328056Y-191040D01*
X327943Y-191026D01*
X327830Y-191016D01*
X327717Y-191010D01*
X327604Y-191008D01*
X327491Y-191010D01*
X327378Y-191016D01*
X327265Y-191026D01*
X327152Y-191040D01*
X327040Y-191057D01*
X326929Y-191079D01*
X326819Y-191104D01*
X326709Y-191134D01*
X326601Y-191167D01*
X326494Y-191204D01*
X326388Y-191244D01*
X326284Y-191289D01*
X326181Y-191337D01*
X326080Y-191388D01*
X325981Y-191443D01*
X325884Y-191501D01*
X325789Y-191563D01*
X325696Y-191628D01*
X325606Y-191696D01*
X325518Y-191767D01*
X325432Y-191842D01*
X325349Y-191919D01*
X325269Y-191999D01*
X325192Y-192082D01*
X325117Y-192168D01*
X325046Y-192256D01*
X324978Y-192346D01*
X324913Y-192439D01*
X324851Y-192534D01*
X324793Y-192631D01*
X324738Y-192730D01*
X324687Y-192831D01*
X324639Y-192934D01*
X324594Y-193038D01*
X324554Y-193144D01*
X324517Y-193251D01*
X324484Y-193359D01*
X324454Y-193469D01*
X324429Y-193579D01*
X324407Y-193690D01*
X324390Y-193802D01*
X324376Y-193915D01*
X324366Y-194028D01*
X324360Y-194141D01*
X324358Y-194254D01*
X324360Y-194367D01*
X324366Y-194480D01*
X324376Y-194593D01*
X324390Y-194706D01*
X324407Y-194818D01*
X324429Y-194929D01*
X324454Y-195039D01*
X324484Y-195149D01*
X324517Y-195257D01*
X324554Y-195364D01*
X324594Y-195470D01*
X324639Y-195574D01*
X324687Y-195677D01*
X324738Y-195778D01*
X324793Y-195877D01*
X324851Y-195974D01*
X324913Y-196069D01*
X324978Y-196162D01*
X325046Y-196252D01*
X325117Y-196340D01*
X325192Y-196426D01*
X325269Y-196509D01*
X325349Y-196589D01*
X325432Y-196666D01*
X325518Y-196741D01*
X325606Y-196812D01*
X325696Y-196880D01*
X325789Y-196945D01*
X325884Y-197007D01*
X325981Y-197065D01*
X326080Y-197120D01*
X326181Y-197171D01*
X326284Y-197219D01*
X326388Y-197264D01*
X326494Y-197304D01*
X326601Y-197341D01*
X326709Y-197374D01*
X326819Y-197404D01*
X326929Y-197429D01*
X327040Y-197451D01*
X327152Y-197468D01*
X327265Y-197482D01*
X327378Y-197492D01*
X327491Y-197498D01*
X327604Y-197500D01*
X333446Y-196850D02*
X333547Y-196848D01*
X333647Y-196842D01*
X333747Y-196832D01*
X333847Y-196819D01*
X333946Y-196801D01*
X334045Y-196780D01*
X334142Y-196755D01*
X334239Y-196726D01*
X334334Y-196693D01*
X334428Y-196657D01*
X334520Y-196617D01*
X334611Y-196574D01*
X334700Y-196527D01*
X334787Y-196477D01*
X334873Y-196423D01*
X334956Y-196366D01*
X335036Y-196306D01*
X335115Y-196243D01*
X335191Y-196176D01*
X335264Y-196107D01*
X335334Y-196035D01*
X335402Y-195961D01*
X335467Y-195884D01*
X335528Y-195804D01*
X335587Y-195722D01*
X335642Y-195638D01*
X335694Y-195552D01*
X335743Y-195464D01*
X335788Y-195374D01*
X335830Y-195282D01*
X335868Y-195189D01*
X335902Y-195094D01*
X335933Y-194999D01*
X335960Y-194902D01*
X335983Y-194804D01*
X336003Y-194705D01*
X336018Y-194605D01*
X336030Y-194505D01*
X336038Y-194405D01*
X336042Y-194304D01*
X336042Y-194204D01*
X336038Y-194103D01*
X336030Y-194003D01*
X336018Y-193903D01*
X336003Y-193803D01*
X335983Y-193704D01*
X335960Y-193606D01*
X335933Y-193509D01*
X335902Y-193414D01*
X335868Y-193319D01*
X335830Y-193226D01*
X335788Y-193134D01*
X335743Y-193044D01*
X335694Y-192956D01*
X335642Y-192870D01*
X335587Y-192786D01*
X335528Y-192704D01*
X335467Y-192624D01*
X335402Y-192547D01*
X335334Y-192473D01*
X335264Y-192401D01*
X335191Y-192332D01*
X335115Y-192265D01*
X335036Y-192202D01*
X334956Y-192142D01*
X334873Y-192085D01*
X334787Y-192031D01*
X334700Y-191981D01*
X334611Y-191934D01*
X334520Y-191891D01*
X334428Y-191851D01*
X334334Y-191815D01*
X334239Y-191782D01*
X334142Y-191753D01*
X334045Y-191728D01*
X333946Y-191707D01*
X333847Y-191689D01*
X333747Y-191676D01*
X333647Y-191666D01*
X333547Y-191660D01*
X333446Y-191658D01*
X333345Y-191660D01*
X333245Y-191666D01*
X333145Y-191676D01*
X333045Y-191689D01*
X332946Y-191707D01*
X332847Y-191728D01*
X332750Y-191753D01*
X332653Y-191782D01*
X332558Y-191815D01*
X332464Y-191851D01*
X332372Y-191891D01*
X332281Y-191934D01*
X332192Y-191981D01*
X332105Y-192031D01*
X332019Y-192085D01*
X331936Y-192142D01*
X331856Y-192202D01*
X331777Y-192265D01*
X331701Y-192332D01*
X331628Y-192401D01*
X331558Y-192473D01*
X331490Y-192547D01*
X331425Y-192624D01*
X331364Y-192704D01*
X331305Y-192786D01*
X331250Y-192870D01*
X331198Y-192956D01*
X331149Y-193044D01*
X331104Y-193134D01*
X331062Y-193226D01*
X331024Y-193319D01*
X330990Y-193414D01*
X330959Y-193509D01*
X330932Y-193606D01*
X330909Y-193704D01*
X330889Y-193803D01*
X330874Y-193903D01*
X330862Y-194003D01*
X330854Y-194103D01*
X330850Y-194204D01*
X330850Y-194304D01*
X330854Y-194405D01*
X330862Y-194505D01*
X330874Y-194605D01*
X330889Y-194705D01*
X330909Y-194804D01*
X330932Y-194902D01*
X330959Y-194999D01*
X330990Y-195094D01*
X331024Y-195189D01*
X331062Y-195282D01*
X331104Y-195374D01*
X331149Y-195464D01*
X331198Y-195552D01*
X331250Y-195638D01*
X331305Y-195722D01*
X331364Y-195804D01*
X331425Y-195884D01*
X331490Y-195961D01*
X331558Y-196035D01*
X331628Y-196107D01*
X331701Y-196176D01*
X331777Y-196243D01*
X331856Y-196306D01*
X331936Y-196366D01*
X332019Y-196423D01*
X332105Y-196477D01*
X332192Y-196527D01*
X332281Y-196574D01*
X332372Y-196617D01*
X332464Y-196657D01*
X332558Y-196693D01*
X332653Y-196726D01*
X332750Y-196755D01*
X332847Y-196780D01*
X332946Y-196801D01*
X333045Y-196819D01*
X333145Y-196832D01*
X333245Y-196842D01*
X333345Y-196848D01*
X333446Y-196850D01*
X336042Y-340935D02*
X324358Y-340935D01*
X336042Y-340935D02*
X336042Y-337690D01*
X336040Y-337577D01*
X336034Y-337464D01*
X336024Y-337351D01*
X336010Y-337238D01*
X335993Y-337126D01*
X335971Y-337015D01*
X335946Y-336905D01*
X335916Y-336795D01*
X335883Y-336687D01*
X335846Y-336580D01*
X335806Y-336474D01*
X335761Y-336370D01*
X335713Y-336267D01*
X335662Y-336166D01*
X335607Y-336067D01*
X335549Y-335970D01*
X335487Y-335875D01*
X335422Y-335782D01*
X335354Y-335692D01*
X335283Y-335604D01*
X335208Y-335518D01*
X335131Y-335435D01*
X335051Y-335355D01*
X334968Y-335278D01*
X334882Y-335203D01*
X334794Y-335132D01*
X334704Y-335064D01*
X334611Y-334999D01*
X334516Y-334937D01*
X334419Y-334879D01*
X334320Y-334824D01*
X334219Y-334773D01*
X334116Y-334725D01*
X334012Y-334680D01*
X333906Y-334640D01*
X333799Y-334603D01*
X333691Y-334570D01*
X333581Y-334540D01*
X333471Y-334515D01*
X333360Y-334493D01*
X333248Y-334476D01*
X333135Y-334462D01*
X333022Y-334452D01*
X332909Y-334446D01*
X332796Y-334444D01*
X332683Y-334446D01*
X332570Y-334452D01*
X332457Y-334462D01*
X332344Y-334476D01*
X332232Y-334493D01*
X332121Y-334515D01*
X332011Y-334540D01*
X331901Y-334570D01*
X331793Y-334603D01*
X331686Y-334640D01*
X331580Y-334680D01*
X331476Y-334725D01*
X331373Y-334773D01*
X331272Y-334824D01*
X331173Y-334879D01*
X331076Y-334937D01*
X330981Y-334999D01*
X330888Y-335064D01*
X330798Y-335132D01*
X330710Y-335203D01*
X330624Y-335278D01*
X330541Y-335355D01*
X330461Y-335435D01*
X330384Y-335518D01*
X330309Y-335604D01*
X330238Y-335692D01*
X330170Y-335782D01*
X330105Y-335875D01*
X330043Y-335970D01*
X329985Y-336067D01*
X329930Y-336166D01*
X329879Y-336267D01*
X329831Y-336370D01*
X329786Y-336474D01*
X329746Y-336580D01*
X329709Y-336687D01*
X329676Y-336795D01*
X329646Y-336905D01*
X329621Y-337015D01*
X329599Y-337126D01*
X329582Y-337238D01*
X329568Y-337351D01*
X329558Y-337464D01*
X329552Y-337577D01*
X329550Y-337690D01*
X329551Y-337690D02*
X329551Y-340935D01*
X329551Y-337041D02*
X324358Y-334444D01*
X333446Y-329579D02*
X336042Y-326334D01*
X324358Y-326334D01*
X324358Y-329579D02*
X324358Y-323088D01*
X329551Y-315553D02*
X329551Y-311658D01*
X329551Y-315553D02*
X329553Y-315652D01*
X329559Y-315752D01*
X329568Y-315851D01*
X329581Y-315949D01*
X329598Y-316047D01*
X329619Y-316145D01*
X329644Y-316241D01*
X329672Y-316336D01*
X329704Y-316430D01*
X329739Y-316523D01*
X329778Y-316615D01*
X329821Y-316705D01*
X329866Y-316793D01*
X329916Y-316880D01*
X329968Y-316964D01*
X330024Y-317047D01*
X330082Y-317127D01*
X330144Y-317205D01*
X330209Y-317280D01*
X330277Y-317353D01*
X330347Y-317423D01*
X330420Y-317491D01*
X330495Y-317556D01*
X330573Y-317618D01*
X330653Y-317676D01*
X330736Y-317732D01*
X330820Y-317784D01*
X330907Y-317834D01*
X330995Y-317879D01*
X331085Y-317922D01*
X331177Y-317961D01*
X331270Y-317996D01*
X331364Y-318028D01*
X331459Y-318056D01*
X331555Y-318081D01*
X331653Y-318102D01*
X331751Y-318119D01*
X331849Y-318132D01*
X331948Y-318141D01*
X332048Y-318147D01*
X332147Y-318149D01*
X332796Y-318149D01*
X332796Y-318150D02*
X332909Y-318148D01*
X333022Y-318142D01*
X333135Y-318132D01*
X333248Y-318118D01*
X333360Y-318101D01*
X333471Y-318079D01*
X333581Y-318054D01*
X333691Y-318024D01*
X333799Y-317991D01*
X333906Y-317954D01*
X334012Y-317914D01*
X334116Y-317869D01*
X334219Y-317821D01*
X334320Y-317770D01*
X334419Y-317715D01*
X334516Y-317657D01*
X334611Y-317595D01*
X334704Y-317530D01*
X334794Y-317462D01*
X334882Y-317391D01*
X334968Y-317316D01*
X335051Y-317239D01*
X335131Y-317159D01*
X335208Y-317076D01*
X335283Y-316990D01*
X335354Y-316902D01*
X335422Y-316812D01*
X335487Y-316719D01*
X335549Y-316624D01*
X335607Y-316527D01*
X335662Y-316428D01*
X335713Y-316327D01*
X335761Y-316224D01*
X335806Y-316120D01*
X335846Y-316014D01*
X335883Y-315907D01*
X335916Y-315799D01*
X335946Y-315689D01*
X335971Y-315579D01*
X335993Y-315468D01*
X336010Y-315356D01*
X336024Y-315243D01*
X336034Y-315130D01*
X336040Y-315017D01*
X336042Y-314904D01*
X336040Y-314791D01*
X336034Y-314678D01*
X336024Y-314565D01*
X336010Y-314452D01*
X335993Y-314340D01*
X335971Y-314229D01*
X335946Y-314119D01*
X335916Y-314009D01*
X335883Y-313901D01*
X335846Y-313794D01*
X335806Y-313688D01*
X335761Y-313584D01*
X335713Y-313481D01*
X335662Y-313380D01*
X335607Y-313281D01*
X335549Y-313184D01*
X335487Y-313089D01*
X335422Y-312996D01*
X335354Y-312906D01*
X335283Y-312818D01*
X335208Y-312732D01*
X335131Y-312649D01*
X335051Y-312569D01*
X334968Y-312492D01*
X334882Y-312417D01*
X334794Y-312346D01*
X334704Y-312278D01*
X334611Y-312213D01*
X334516Y-312151D01*
X334419Y-312093D01*
X334320Y-312038D01*
X334219Y-311987D01*
X334116Y-311939D01*
X334012Y-311894D01*
X333906Y-311854D01*
X333799Y-311817D01*
X333691Y-311784D01*
X333581Y-311754D01*
X333471Y-311729D01*
X333360Y-311707D01*
X333248Y-311690D01*
X333135Y-311676D01*
X333022Y-311666D01*
X332909Y-311660D01*
X332796Y-311658D01*
X329551Y-311658D01*
X329408Y-311660D01*
X329265Y-311666D01*
X329122Y-311676D01*
X328980Y-311690D01*
X328838Y-311707D01*
X328696Y-311729D01*
X328555Y-311754D01*
X328415Y-311784D01*
X328276Y-311817D01*
X328138Y-311854D01*
X328001Y-311895D01*
X327865Y-311939D01*
X327730Y-311988D01*
X327597Y-312040D01*
X327465Y-312095D01*
X327335Y-312155D01*
X327206Y-312218D01*
X327079Y-312284D01*
X326955Y-312354D01*
X326832Y-312427D01*
X326711Y-312504D01*
X326592Y-312584D01*
X326476Y-312667D01*
X326361Y-312753D01*
X326250Y-312842D01*
X326140Y-312935D01*
X326034Y-313030D01*
X325930Y-313129D01*
X325829Y-313230D01*
X325730Y-313334D01*
X325635Y-313440D01*
X325542Y-313550D01*
X325453Y-313661D01*
X325367Y-313776D01*
X325284Y-313892D01*
X325204Y-314011D01*
X325127Y-314132D01*
X325054Y-314255D01*
X324984Y-314379D01*
X324918Y-314506D01*
X324855Y-314635D01*
X324795Y-314765D01*
X324740Y-314897D01*
X324688Y-315030D01*
X324639Y-315165D01*
X324595Y-315301D01*
X324554Y-315438D01*
X324517Y-315576D01*
X324484Y-315715D01*
X324454Y-315855D01*
X324429Y-315996D01*
X324407Y-316138D01*
X324390Y-316280D01*
X324376Y-316422D01*
X324366Y-316565D01*
X324360Y-316708D01*
X324358Y-316851D01*
X291592Y-337760D02*
X279908Y-337760D01*
X291592Y-337760D02*
X291592Y-334515D01*
X291590Y-334402D01*
X291584Y-334289D01*
X291574Y-334176D01*
X291560Y-334063D01*
X291543Y-333951D01*
X291521Y-333840D01*
X291496Y-333730D01*
X291466Y-333620D01*
X291433Y-333512D01*
X291396Y-333405D01*
X291356Y-333299D01*
X291311Y-333195D01*
X291263Y-333092D01*
X291212Y-332991D01*
X291157Y-332892D01*
X291099Y-332795D01*
X291037Y-332700D01*
X290972Y-332607D01*
X290904Y-332517D01*
X290833Y-332429D01*
X290758Y-332343D01*
X290681Y-332260D01*
X290601Y-332180D01*
X290518Y-332103D01*
X290432Y-332028D01*
X290344Y-331957D01*
X290254Y-331889D01*
X290161Y-331824D01*
X290066Y-331762D01*
X289969Y-331704D01*
X289870Y-331649D01*
X289769Y-331598D01*
X289666Y-331550D01*
X289562Y-331505D01*
X289456Y-331465D01*
X289349Y-331428D01*
X289241Y-331395D01*
X289131Y-331365D01*
X289021Y-331340D01*
X288910Y-331318D01*
X288798Y-331301D01*
X288685Y-331287D01*
X288572Y-331277D01*
X288459Y-331271D01*
X288346Y-331269D01*
X288233Y-331271D01*
X288120Y-331277D01*
X288007Y-331287D01*
X287894Y-331301D01*
X287782Y-331318D01*
X287671Y-331340D01*
X287561Y-331365D01*
X287451Y-331395D01*
X287343Y-331428D01*
X287236Y-331465D01*
X287130Y-331505D01*
X287026Y-331550D01*
X286923Y-331598D01*
X286822Y-331649D01*
X286723Y-331704D01*
X286626Y-331762D01*
X286531Y-331824D01*
X286438Y-331889D01*
X286348Y-331957D01*
X286260Y-332028D01*
X286174Y-332103D01*
X286091Y-332180D01*
X286011Y-332260D01*
X285934Y-332343D01*
X285859Y-332429D01*
X285788Y-332517D01*
X285720Y-332607D01*
X285655Y-332700D01*
X285593Y-332795D01*
X285535Y-332892D01*
X285480Y-332991D01*
X285429Y-333092D01*
X285381Y-333195D01*
X285336Y-333299D01*
X285296Y-333405D01*
X285259Y-333512D01*
X285226Y-333620D01*
X285196Y-333730D01*
X285171Y-333840D01*
X285149Y-333951D01*
X285132Y-334063D01*
X285118Y-334176D01*
X285108Y-334289D01*
X285102Y-334402D01*
X285100Y-334515D01*
X285101Y-334515D02*
X285101Y-337760D01*
X285101Y-333866D02*
X279908Y-331269D01*
X288671Y-319913D02*
X288778Y-319915D01*
X288884Y-319921D01*
X288990Y-319931D01*
X289096Y-319944D01*
X289202Y-319962D01*
X289306Y-319983D01*
X289410Y-320008D01*
X289513Y-320037D01*
X289614Y-320069D01*
X289714Y-320106D01*
X289813Y-320146D01*
X289911Y-320189D01*
X290007Y-320236D01*
X290101Y-320287D01*
X290193Y-320341D01*
X290283Y-320398D01*
X290371Y-320458D01*
X290456Y-320522D01*
X290539Y-320589D01*
X290620Y-320659D01*
X290698Y-320731D01*
X290774Y-320807D01*
X290846Y-320885D01*
X290916Y-320966D01*
X290983Y-321049D01*
X291047Y-321134D01*
X291107Y-321222D01*
X291164Y-321312D01*
X291218Y-321404D01*
X291269Y-321498D01*
X291316Y-321594D01*
X291359Y-321692D01*
X291399Y-321791D01*
X291436Y-321891D01*
X291468Y-321992D01*
X291497Y-322095D01*
X291522Y-322199D01*
X291543Y-322303D01*
X291561Y-322409D01*
X291574Y-322515D01*
X291584Y-322621D01*
X291590Y-322727D01*
X291592Y-322834D01*
X291590Y-322955D01*
X291584Y-323076D01*
X291574Y-323196D01*
X291561Y-323317D01*
X291543Y-323436D01*
X291522Y-323556D01*
X291497Y-323674D01*
X291468Y-323791D01*
X291435Y-323908D01*
X291399Y-324023D01*
X291358Y-324137D01*
X291315Y-324250D01*
X291267Y-324362D01*
X291216Y-324471D01*
X291161Y-324579D01*
X291103Y-324686D01*
X291042Y-324790D01*
X290977Y-324892D01*
X290909Y-324992D01*
X290838Y-325090D01*
X290764Y-325186D01*
X290687Y-325279D01*
X290606Y-325369D01*
X290523Y-325457D01*
X290437Y-325542D01*
X290348Y-325625D01*
X290257Y-325704D01*
X290163Y-325781D01*
X290067Y-325854D01*
X289969Y-325924D01*
X289868Y-325991D01*
X289765Y-326055D01*
X289660Y-326116D01*
X289553Y-326173D01*
X289445Y-326226D01*
X289335Y-326276D01*
X289223Y-326322D01*
X289110Y-326365D01*
X288995Y-326404D01*
X286399Y-320887D02*
X286477Y-320808D01*
X286557Y-320732D01*
X286640Y-320659D01*
X286726Y-320589D01*
X286813Y-320522D01*
X286904Y-320458D01*
X286996Y-320398D01*
X287090Y-320340D01*
X287187Y-320286D01*
X287285Y-320236D01*
X287385Y-320189D01*
X287486Y-320145D01*
X287589Y-320105D01*
X287694Y-320069D01*
X287799Y-320037D01*
X287906Y-320008D01*
X288013Y-319983D01*
X288122Y-319961D01*
X288231Y-319944D01*
X288340Y-319930D01*
X288450Y-319921D01*
X288561Y-319915D01*
X288671Y-319913D01*
X286399Y-320887D02*
X279908Y-326404D01*
X279908Y-319913D01*
X285750Y-314975D02*
X285980Y-314972D01*
X286210Y-314964D01*
X286439Y-314950D01*
X286668Y-314931D01*
X286897Y-314906D01*
X287125Y-314876D01*
X287352Y-314841D01*
X287578Y-314800D01*
X287803Y-314754D01*
X288027Y-314702D01*
X288250Y-314645D01*
X288471Y-314583D01*
X288691Y-314515D01*
X288909Y-314442D01*
X289125Y-314364D01*
X289339Y-314281D01*
X289552Y-314193D01*
X289762Y-314100D01*
X289969Y-314001D01*
X290059Y-313968D01*
X290148Y-313932D01*
X290236Y-313892D01*
X290321Y-313848D01*
X290405Y-313801D01*
X290487Y-313751D01*
X290567Y-313697D01*
X290644Y-313641D01*
X290720Y-313581D01*
X290793Y-313518D01*
X290863Y-313453D01*
X290931Y-313384D01*
X290995Y-313313D01*
X291057Y-313240D01*
X291116Y-313164D01*
X291172Y-313086D01*
X291225Y-313005D01*
X291274Y-312923D01*
X291320Y-312839D01*
X291363Y-312752D01*
X291402Y-312665D01*
X291438Y-312575D01*
X291470Y-312485D01*
X291498Y-312393D01*
X291523Y-312300D01*
X291544Y-312206D01*
X291561Y-312112D01*
X291575Y-312017D01*
X291584Y-311921D01*
X291590Y-311825D01*
X291592Y-311729D01*
X291590Y-311633D01*
X291584Y-311537D01*
X291575Y-311441D01*
X291561Y-311346D01*
X291544Y-311252D01*
X291523Y-311158D01*
X291498Y-311065D01*
X291470Y-310973D01*
X291438Y-310883D01*
X291402Y-310793D01*
X291363Y-310706D01*
X291320Y-310619D01*
X291274Y-310535D01*
X291225Y-310453D01*
X291172Y-310372D01*
X291116Y-310294D01*
X291057Y-310218D01*
X290995Y-310145D01*
X290931Y-310074D01*
X290863Y-310005D01*
X290793Y-309940D01*
X290720Y-309877D01*
X290645Y-309817D01*
X290567Y-309761D01*
X290487Y-309707D01*
X290405Y-309657D01*
X290321Y-309610D01*
X290236Y-309567D01*
X290148Y-309526D01*
X290059Y-309490D01*
X289969Y-309457D01*
X289761Y-309358D01*
X289551Y-309265D01*
X289339Y-309177D01*
X289125Y-309094D01*
X288908Y-309016D01*
X288690Y-308943D01*
X288471Y-308875D01*
X288249Y-308813D01*
X288027Y-308756D01*
X287803Y-308704D01*
X287578Y-308658D01*
X287352Y-308617D01*
X287124Y-308582D01*
X286897Y-308552D01*
X286668Y-308527D01*
X286439Y-308508D01*
X286210Y-308494D01*
X285980Y-308486D01*
X285750Y-308483D01*
X285750Y-314974D02*
X285520Y-314971D01*
X285290Y-314963D01*
X285061Y-314949D01*
X284832Y-314930D01*
X284603Y-314905D01*
X284375Y-314875D01*
X284148Y-314840D01*
X283922Y-314799D01*
X283697Y-314753D01*
X283473Y-314701D01*
X283250Y-314644D01*
X283029Y-314582D01*
X282809Y-314514D01*
X282591Y-314441D01*
X282375Y-314363D01*
X282161Y-314280D01*
X281949Y-314192D01*
X281738Y-314099D01*
X281531Y-314000D01*
X281531Y-314001D02*
X281441Y-313968D01*
X281352Y-313932D01*
X281264Y-313891D01*
X281179Y-313848D01*
X281095Y-313801D01*
X281013Y-313751D01*
X280933Y-313697D01*
X280856Y-313641D01*
X280780Y-313581D01*
X280707Y-313518D01*
X280637Y-313453D01*
X280569Y-313384D01*
X280505Y-313313D01*
X280443Y-313240D01*
X280384Y-313164D01*
X280328Y-313086D01*
X280275Y-313005D01*
X280226Y-312923D01*
X280180Y-312839D01*
X280137Y-312752D01*
X280098Y-312665D01*
X280062Y-312575D01*
X280030Y-312485D01*
X280002Y-312393D01*
X279977Y-312300D01*
X279956Y-312206D01*
X279939Y-312112D01*
X279925Y-312017D01*
X279916Y-311921D01*
X279910Y-311825D01*
X279908Y-311729D01*
X281531Y-309457D02*
X281738Y-309358D01*
X281949Y-309265D01*
X282161Y-309177D01*
X282375Y-309094D01*
X282591Y-309016D01*
X282809Y-308943D01*
X283029Y-308875D01*
X283250Y-308813D01*
X283473Y-308756D01*
X283697Y-308704D01*
X283922Y-308658D01*
X284148Y-308617D01*
X284375Y-308582D01*
X284603Y-308552D01*
X284832Y-308527D01*
X285061Y-308508D01*
X285290Y-308494D01*
X285520Y-308486D01*
X285750Y-308483D01*
X281531Y-309457D02*
X281441Y-309490D01*
X281352Y-309526D01*
X281264Y-309567D01*
X281179Y-309610D01*
X281095Y-309657D01*
X281013Y-309707D01*
X280933Y-309761D01*
X280855Y-309817D01*
X280780Y-309877D01*
X280707Y-309940D01*
X280637Y-310005D01*
X280569Y-310074D01*
X280505Y-310145D01*
X280443Y-310218D01*
X280384Y-310294D01*
X280328Y-310372D01*
X280275Y-310453D01*
X280226Y-310535D01*
X280180Y-310619D01*
X280137Y-310706D01*
X280098Y-310793D01*
X280062Y-310883D01*
X280030Y-310973D01*
X280002Y-311065D01*
X279977Y-311158D01*
X279956Y-311252D01*
X279939Y-311346D01*
X279925Y-311441D01*
X279916Y-311537D01*
X279910Y-311633D01*
X279908Y-311729D01*
X282504Y-314325D02*
X288996Y-309132D01*
X409067Y-202692D02*
X409067Y-191008D01*
X405821Y-191008D01*
X405708Y-191010D01*
X405595Y-191016D01*
X405482Y-191026D01*
X405369Y-191040D01*
X405257Y-191057D01*
X405146Y-191079D01*
X405036Y-191104D01*
X404926Y-191134D01*
X404818Y-191167D01*
X404711Y-191204D01*
X404605Y-191244D01*
X404501Y-191289D01*
X404398Y-191337D01*
X404297Y-191388D01*
X404198Y-191443D01*
X404101Y-191501D01*
X404006Y-191563D01*
X403913Y-191628D01*
X403823Y-191696D01*
X403735Y-191767D01*
X403649Y-191842D01*
X403566Y-191919D01*
X403486Y-191999D01*
X403409Y-192082D01*
X403334Y-192168D01*
X403263Y-192256D01*
X403195Y-192346D01*
X403130Y-192439D01*
X403068Y-192534D01*
X403010Y-192631D01*
X402955Y-192730D01*
X402904Y-192831D01*
X402856Y-192934D01*
X402811Y-193038D01*
X402771Y-193144D01*
X402734Y-193251D01*
X402701Y-193359D01*
X402671Y-193469D01*
X402646Y-193579D01*
X402624Y-193690D01*
X402607Y-193802D01*
X402593Y-193915D01*
X402583Y-194028D01*
X402577Y-194141D01*
X402575Y-194254D01*
X402577Y-194367D01*
X402583Y-194480D01*
X402593Y-194593D01*
X402607Y-194706D01*
X402624Y-194818D01*
X402646Y-194929D01*
X402671Y-195039D01*
X402701Y-195149D01*
X402734Y-195257D01*
X402771Y-195364D01*
X402811Y-195470D01*
X402856Y-195574D01*
X402904Y-195677D01*
X402955Y-195778D01*
X403010Y-195877D01*
X403068Y-195974D01*
X403130Y-196069D01*
X403195Y-196162D01*
X403263Y-196252D01*
X403334Y-196340D01*
X403409Y-196426D01*
X403486Y-196509D01*
X403566Y-196589D01*
X403649Y-196666D01*
X403735Y-196741D01*
X403823Y-196812D01*
X403913Y-196880D01*
X404006Y-196945D01*
X404101Y-197007D01*
X404198Y-197065D01*
X404297Y-197120D01*
X404398Y-197171D01*
X404501Y-197219D01*
X404605Y-197264D01*
X404711Y-197304D01*
X404818Y-197341D01*
X404926Y-197374D01*
X405036Y-197404D01*
X405146Y-197429D01*
X405257Y-197451D01*
X405369Y-197468D01*
X405482Y-197482D01*
X405595Y-197492D01*
X405708Y-197498D01*
X405821Y-197500D01*
X405821Y-197499D02*
X409067Y-197499D01*
X405172Y-197499D02*
X402576Y-202692D01*
X391220Y-193929D02*
X391222Y-193822D01*
X391228Y-193716D01*
X391238Y-193610D01*
X391251Y-193504D01*
X391269Y-193398D01*
X391290Y-193294D01*
X391315Y-193190D01*
X391344Y-193087D01*
X391376Y-192986D01*
X391413Y-192886D01*
X391453Y-192787D01*
X391496Y-192689D01*
X391543Y-192593D01*
X391594Y-192499D01*
X391648Y-192407D01*
X391705Y-192317D01*
X391765Y-192229D01*
X391829Y-192144D01*
X391896Y-192061D01*
X391966Y-191980D01*
X392038Y-191902D01*
X392114Y-191826D01*
X392192Y-191754D01*
X392273Y-191684D01*
X392356Y-191617D01*
X392441Y-191553D01*
X392529Y-191493D01*
X392619Y-191436D01*
X392711Y-191382D01*
X392805Y-191331D01*
X392901Y-191284D01*
X392999Y-191241D01*
X393098Y-191201D01*
X393198Y-191164D01*
X393299Y-191132D01*
X393402Y-191103D01*
X393506Y-191078D01*
X393610Y-191057D01*
X393716Y-191039D01*
X393822Y-191026D01*
X393928Y-191016D01*
X394034Y-191010D01*
X394141Y-191008D01*
X394262Y-191010D01*
X394383Y-191016D01*
X394503Y-191026D01*
X394624Y-191039D01*
X394743Y-191057D01*
X394863Y-191078D01*
X394981Y-191103D01*
X395098Y-191132D01*
X395215Y-191165D01*
X395330Y-191201D01*
X395444Y-191242D01*
X395557Y-191285D01*
X395669Y-191333D01*
X395778Y-191384D01*
X395886Y-191439D01*
X395993Y-191497D01*
X396097Y-191558D01*
X396199Y-191623D01*
X396299Y-191691D01*
X396397Y-191762D01*
X396493Y-191836D01*
X396586Y-191913D01*
X396676Y-191994D01*
X396764Y-192077D01*
X396849Y-192163D01*
X396932Y-192252D01*
X397011Y-192343D01*
X397088Y-192437D01*
X397161Y-192533D01*
X397231Y-192631D01*
X397298Y-192732D01*
X397362Y-192835D01*
X397423Y-192940D01*
X397480Y-193047D01*
X397533Y-193155D01*
X397583Y-193265D01*
X397630Y-193377D01*
X397672Y-193490D01*
X397711Y-193605D01*
X392194Y-196201D02*
X392115Y-196123D01*
X392039Y-196043D01*
X391966Y-195960D01*
X391896Y-195874D01*
X391829Y-195787D01*
X391765Y-195696D01*
X391705Y-195604D01*
X391647Y-195510D01*
X391593Y-195413D01*
X391543Y-195315D01*
X391496Y-195215D01*
X391452Y-195114D01*
X391412Y-195011D01*
X391376Y-194906D01*
X391344Y-194801D01*
X391315Y-194694D01*
X391290Y-194587D01*
X391268Y-194478D01*
X391251Y-194369D01*
X391237Y-194260D01*
X391228Y-194150D01*
X391222Y-194039D01*
X391220Y-193929D01*
X392193Y-196201D02*
X397711Y-202692D01*
X391220Y-202692D01*
X386281Y-193604D02*
X383035Y-191008D01*
X383035Y-202692D01*
X379790Y-202692D02*
X386281Y-202692D01*
X427289Y-316992D02*
X429886Y-316992D01*
X429985Y-316990D01*
X430085Y-316984D01*
X430184Y-316975D01*
X430282Y-316962D01*
X430380Y-316945D01*
X430478Y-316924D01*
X430574Y-316899D01*
X430669Y-316871D01*
X430763Y-316839D01*
X430856Y-316804D01*
X430948Y-316765D01*
X431038Y-316722D01*
X431126Y-316677D01*
X431213Y-316627D01*
X431297Y-316575D01*
X431380Y-316519D01*
X431460Y-316461D01*
X431538Y-316399D01*
X431613Y-316334D01*
X431686Y-316266D01*
X431756Y-316196D01*
X431824Y-316123D01*
X431889Y-316048D01*
X431951Y-315970D01*
X432009Y-315890D01*
X432065Y-315807D01*
X432117Y-315723D01*
X432167Y-315636D01*
X432212Y-315548D01*
X432255Y-315458D01*
X432294Y-315366D01*
X432329Y-315273D01*
X432361Y-315179D01*
X432389Y-315084D01*
X432414Y-314988D01*
X432435Y-314890D01*
X432452Y-314792D01*
X432465Y-314694D01*
X432474Y-314595D01*
X432480Y-314495D01*
X432482Y-314396D01*
X432482Y-307904D01*
X432483Y-307904D02*
X432481Y-307805D01*
X432475Y-307705D01*
X432466Y-307606D01*
X432453Y-307508D01*
X432435Y-307410D01*
X432415Y-307312D01*
X432390Y-307216D01*
X432362Y-307120D01*
X432330Y-307026D01*
X432295Y-306933D01*
X432256Y-306842D01*
X432213Y-306752D01*
X432168Y-306663D01*
X432118Y-306577D01*
X432066Y-306492D01*
X432010Y-306410D01*
X431951Y-306330D01*
X431890Y-306252D01*
X431825Y-306176D01*
X431757Y-306103D01*
X431687Y-306033D01*
X431614Y-305965D01*
X431538Y-305900D01*
X431460Y-305839D01*
X431380Y-305780D01*
X431298Y-305724D01*
X431213Y-305672D01*
X431127Y-305623D01*
X431038Y-305577D01*
X430948Y-305534D01*
X430857Y-305495D01*
X430764Y-305460D01*
X430670Y-305428D01*
X430574Y-305400D01*
X430478Y-305375D01*
X430380Y-305355D01*
X430282Y-305337D01*
X430184Y-305324D01*
X430085Y-305315D01*
X429986Y-305309D01*
X429886Y-305307D01*
X429886Y-305308D02*
X427289Y-305308D01*
X419354Y-305308D02*
X419247Y-305310D01*
X419141Y-305316D01*
X419035Y-305326D01*
X418929Y-305339D01*
X418823Y-305357D01*
X418719Y-305378D01*
X418615Y-305403D01*
X418512Y-305432D01*
X418411Y-305464D01*
X418311Y-305501D01*
X418212Y-305541D01*
X418114Y-305584D01*
X418018Y-305631D01*
X417924Y-305682D01*
X417832Y-305736D01*
X417742Y-305793D01*
X417654Y-305853D01*
X417569Y-305917D01*
X417486Y-305984D01*
X417405Y-306054D01*
X417327Y-306126D01*
X417251Y-306202D01*
X417179Y-306280D01*
X417109Y-306361D01*
X417042Y-306444D01*
X416978Y-306529D01*
X416918Y-306617D01*
X416861Y-306707D01*
X416807Y-306799D01*
X416756Y-306893D01*
X416709Y-306989D01*
X416666Y-307087D01*
X416626Y-307186D01*
X416589Y-307286D01*
X416557Y-307387D01*
X416528Y-307490D01*
X416503Y-307594D01*
X416482Y-307698D01*
X416464Y-307804D01*
X416451Y-307910D01*
X416441Y-308016D01*
X416435Y-308122D01*
X416433Y-308229D01*
X419354Y-305308D02*
X419475Y-305310D01*
X419596Y-305316D01*
X419716Y-305326D01*
X419837Y-305339D01*
X419956Y-305357D01*
X420076Y-305378D01*
X420194Y-305403D01*
X420311Y-305432D01*
X420428Y-305465D01*
X420543Y-305501D01*
X420657Y-305542D01*
X420770Y-305585D01*
X420882Y-305633D01*
X420991Y-305684D01*
X421099Y-305739D01*
X421206Y-305797D01*
X421310Y-305858D01*
X421412Y-305923D01*
X421512Y-305991D01*
X421610Y-306062D01*
X421706Y-306136D01*
X421799Y-306213D01*
X421889Y-306294D01*
X421977Y-306377D01*
X422062Y-306463D01*
X422145Y-306552D01*
X422224Y-306643D01*
X422301Y-306737D01*
X422374Y-306833D01*
X422444Y-306931D01*
X422511Y-307032D01*
X422575Y-307135D01*
X422636Y-307240D01*
X422693Y-307347D01*
X422746Y-307455D01*
X422796Y-307565D01*
X422843Y-307677D01*
X422885Y-307790D01*
X422924Y-307905D01*
X417407Y-310501D02*
X417328Y-310423D01*
X417252Y-310343D01*
X417179Y-310260D01*
X417109Y-310174D01*
X417042Y-310087D01*
X416978Y-309996D01*
X416918Y-309904D01*
X416860Y-309810D01*
X416806Y-309713D01*
X416756Y-309615D01*
X416709Y-309515D01*
X416665Y-309414D01*
X416625Y-309311D01*
X416589Y-309206D01*
X416557Y-309101D01*
X416528Y-308994D01*
X416503Y-308887D01*
X416481Y-308778D01*
X416464Y-308669D01*
X416450Y-308560D01*
X416441Y-308450D01*
X416435Y-308339D01*
X416433Y-308229D01*
X417407Y-310501D02*
X422924Y-316992D01*
X416433Y-316992D01*
X346583Y-219146D02*
X346583Y-216549D01*
X346583Y-219146D02*
X346585Y-219245D01*
X346591Y-219345D01*
X346600Y-219444D01*
X346613Y-219542D01*
X346630Y-219640D01*
X346651Y-219738D01*
X346676Y-219834D01*
X346704Y-219929D01*
X346736Y-220023D01*
X346771Y-220116D01*
X346810Y-220208D01*
X346853Y-220298D01*
X346898Y-220386D01*
X346948Y-220473D01*
X347000Y-220557D01*
X347056Y-220640D01*
X347114Y-220720D01*
X347176Y-220798D01*
X347241Y-220873D01*
X347309Y-220946D01*
X347379Y-221016D01*
X347452Y-221084D01*
X347527Y-221149D01*
X347605Y-221211D01*
X347685Y-221269D01*
X347768Y-221325D01*
X347852Y-221377D01*
X347939Y-221427D01*
X348027Y-221472D01*
X348117Y-221515D01*
X348209Y-221554D01*
X348302Y-221589D01*
X348396Y-221621D01*
X348491Y-221649D01*
X348587Y-221674D01*
X348685Y-221695D01*
X348783Y-221712D01*
X348881Y-221725D01*
X348980Y-221734D01*
X349080Y-221740D01*
X349179Y-221742D01*
X355671Y-221742D01*
X355770Y-221740D01*
X355870Y-221734D01*
X355969Y-221725D01*
X356067Y-221712D01*
X356165Y-221695D01*
X356263Y-221674D01*
X356359Y-221649D01*
X356454Y-221621D01*
X356548Y-221589D01*
X356641Y-221554D01*
X356733Y-221515D01*
X356823Y-221472D01*
X356911Y-221427D01*
X356998Y-221377D01*
X357082Y-221325D01*
X357165Y-221269D01*
X357245Y-221211D01*
X357323Y-221149D01*
X357398Y-221084D01*
X357471Y-221016D01*
X357541Y-220946D01*
X357609Y-220873D01*
X357674Y-220798D01*
X357736Y-220720D01*
X357794Y-220640D01*
X357850Y-220557D01*
X357902Y-220473D01*
X357952Y-220386D01*
X357997Y-220298D01*
X358040Y-220208D01*
X358079Y-220116D01*
X358114Y-220024D01*
X358146Y-219929D01*
X358174Y-219834D01*
X358199Y-219738D01*
X358220Y-219640D01*
X358237Y-219542D01*
X358250Y-219444D01*
X358259Y-219345D01*
X358265Y-219245D01*
X358267Y-219146D01*
X358267Y-216549D01*
X346583Y-212184D02*
X346583Y-208938D01*
X346585Y-208825D01*
X346591Y-208712D01*
X346601Y-208599D01*
X346615Y-208486D01*
X346632Y-208374D01*
X346654Y-208263D01*
X346679Y-208153D01*
X346709Y-208043D01*
X346742Y-207935D01*
X346779Y-207828D01*
X346819Y-207722D01*
X346864Y-207618D01*
X346912Y-207515D01*
X346963Y-207414D01*
X347018Y-207315D01*
X347076Y-207218D01*
X347138Y-207123D01*
X347203Y-207030D01*
X347271Y-206940D01*
X347342Y-206852D01*
X347417Y-206766D01*
X347494Y-206683D01*
X347574Y-206603D01*
X347657Y-206526D01*
X347743Y-206451D01*
X347831Y-206380D01*
X347921Y-206312D01*
X348014Y-206247D01*
X348109Y-206185D01*
X348206Y-206127D01*
X348305Y-206072D01*
X348406Y-206021D01*
X348509Y-205973D01*
X348613Y-205928D01*
X348719Y-205888D01*
X348826Y-205851D01*
X348934Y-205818D01*
X349044Y-205788D01*
X349154Y-205763D01*
X349265Y-205741D01*
X349377Y-205724D01*
X349490Y-205710D01*
X349603Y-205700D01*
X349716Y-205694D01*
X349829Y-205692D01*
X349942Y-205694D01*
X350055Y-205700D01*
X350168Y-205710D01*
X350281Y-205724D01*
X350393Y-205741D01*
X350504Y-205763D01*
X350614Y-205788D01*
X350724Y-205818D01*
X350832Y-205851D01*
X350939Y-205888D01*
X351045Y-205928D01*
X351149Y-205973D01*
X351252Y-206021D01*
X351353Y-206072D01*
X351452Y-206127D01*
X351549Y-206185D01*
X351644Y-206247D01*
X351737Y-206312D01*
X351827Y-206380D01*
X351915Y-206451D01*
X352001Y-206526D01*
X352084Y-206603D01*
X352164Y-206683D01*
X352241Y-206766D01*
X352316Y-206852D01*
X352387Y-206940D01*
X352455Y-207030D01*
X352520Y-207123D01*
X352582Y-207218D01*
X352640Y-207315D01*
X352695Y-207414D01*
X352746Y-207515D01*
X352794Y-207618D01*
X352839Y-207722D01*
X352879Y-207828D01*
X352916Y-207935D01*
X352949Y-208043D01*
X352979Y-208153D01*
X353004Y-208263D01*
X353026Y-208374D01*
X353043Y-208486D01*
X353057Y-208599D01*
X353067Y-208712D01*
X353073Y-208825D01*
X353075Y-208938D01*
X358267Y-208289D02*
X358267Y-212184D01*
X358267Y-208289D02*
X358265Y-208188D01*
X358259Y-208088D01*
X358249Y-207988D01*
X358236Y-207888D01*
X358218Y-207789D01*
X358197Y-207690D01*
X358172Y-207593D01*
X358143Y-207496D01*
X358110Y-207401D01*
X358074Y-207307D01*
X358034Y-207215D01*
X357991Y-207124D01*
X357944Y-207035D01*
X357894Y-206948D01*
X357840Y-206862D01*
X357783Y-206779D01*
X357723Y-206699D01*
X357660Y-206620D01*
X357593Y-206544D01*
X357524Y-206471D01*
X357452Y-206401D01*
X357378Y-206333D01*
X357301Y-206268D01*
X357221Y-206207D01*
X357139Y-206148D01*
X357055Y-206093D01*
X356969Y-206041D01*
X356881Y-205992D01*
X356791Y-205947D01*
X356699Y-205905D01*
X356606Y-205867D01*
X356511Y-205833D01*
X356416Y-205802D01*
X356319Y-205775D01*
X356221Y-205752D01*
X356122Y-205732D01*
X356022Y-205717D01*
X355922Y-205705D01*
X355822Y-205697D01*
X355721Y-205693D01*
X355621Y-205693D01*
X355520Y-205697D01*
X355420Y-205705D01*
X355320Y-205717D01*
X355220Y-205732D01*
X355121Y-205752D01*
X355023Y-205775D01*
X354926Y-205802D01*
X354831Y-205833D01*
X354736Y-205867D01*
X354643Y-205905D01*
X354551Y-205947D01*
X354461Y-205992D01*
X354373Y-206041D01*
X354287Y-206093D01*
X354203Y-206148D01*
X354121Y-206207D01*
X354041Y-206268D01*
X353964Y-206333D01*
X353890Y-206401D01*
X353818Y-206471D01*
X353749Y-206544D01*
X353682Y-206620D01*
X353619Y-206699D01*
X353559Y-206779D01*
X353502Y-206862D01*
X353448Y-206948D01*
X353398Y-207035D01*
X353351Y-207124D01*
X353308Y-207215D01*
X353268Y-207307D01*
X353232Y-207401D01*
X353199Y-207496D01*
X353170Y-207593D01*
X353145Y-207690D01*
X353124Y-207789D01*
X353106Y-207888D01*
X353093Y-207988D01*
X353083Y-208088D01*
X353077Y-208188D01*
X353075Y-208289D01*
X353074Y-208289D02*
X353074Y-210886D01*
X368808Y-336042D02*
X380492Y-336042D01*
X380492Y-332796D01*
X380490Y-332683D01*
X380484Y-332570D01*
X380474Y-332457D01*
X380460Y-332344D01*
X380443Y-332232D01*
X380421Y-332121D01*
X380396Y-332011D01*
X380366Y-331901D01*
X380333Y-331793D01*
X380296Y-331686D01*
X380256Y-331580D01*
X380211Y-331476D01*
X380163Y-331373D01*
X380112Y-331272D01*
X380057Y-331173D01*
X379999Y-331076D01*
X379937Y-330981D01*
X379872Y-330888D01*
X379804Y-330798D01*
X379733Y-330710D01*
X379658Y-330624D01*
X379581Y-330541D01*
X379501Y-330461D01*
X379418Y-330384D01*
X379332Y-330309D01*
X379244Y-330238D01*
X379154Y-330170D01*
X379061Y-330105D01*
X378966Y-330043D01*
X378869Y-329985D01*
X378770Y-329930D01*
X378669Y-329879D01*
X378566Y-329831D01*
X378462Y-329786D01*
X378356Y-329746D01*
X378249Y-329709D01*
X378141Y-329676D01*
X378031Y-329646D01*
X377921Y-329621D01*
X377810Y-329599D01*
X377698Y-329582D01*
X377585Y-329568D01*
X377472Y-329558D01*
X377359Y-329552D01*
X377246Y-329550D01*
X377133Y-329552D01*
X377020Y-329558D01*
X376907Y-329568D01*
X376794Y-329582D01*
X376682Y-329599D01*
X376571Y-329621D01*
X376461Y-329646D01*
X376351Y-329676D01*
X376243Y-329709D01*
X376136Y-329746D01*
X376030Y-329786D01*
X375926Y-329831D01*
X375823Y-329879D01*
X375722Y-329930D01*
X375623Y-329985D01*
X375526Y-330043D01*
X375431Y-330105D01*
X375338Y-330170D01*
X375248Y-330238D01*
X375160Y-330309D01*
X375074Y-330384D01*
X374991Y-330461D01*
X374911Y-330541D01*
X374834Y-330624D01*
X374759Y-330710D01*
X374688Y-330798D01*
X374620Y-330888D01*
X374555Y-330981D01*
X374493Y-331076D01*
X374435Y-331173D01*
X374380Y-331272D01*
X374329Y-331373D01*
X374281Y-331476D01*
X374236Y-331580D01*
X374196Y-331686D01*
X374159Y-331793D01*
X374126Y-331901D01*
X374096Y-332011D01*
X374071Y-332121D01*
X374049Y-332232D01*
X374032Y-332344D01*
X374018Y-332457D01*
X374008Y-332570D01*
X374002Y-332683D01*
X374000Y-332796D01*
X374001Y-332796D02*
X374001Y-336042D01*
X374001Y-332147D02*
X368808Y-329551D01*
X377571Y-318195D02*
X377678Y-318197D01*
X377784Y-318203D01*
X377890Y-318213D01*
X377996Y-318226D01*
X378102Y-318244D01*
X378206Y-318265D01*
X378310Y-318290D01*
X378413Y-318319D01*
X378514Y-318351D01*
X378614Y-318388D01*
X378713Y-318428D01*
X378811Y-318471D01*
X378907Y-318518D01*
X379001Y-318569D01*
X379093Y-318623D01*
X379183Y-318680D01*
X379271Y-318740D01*
X379356Y-318804D01*
X379439Y-318871D01*
X379520Y-318941D01*
X379598Y-319013D01*
X379674Y-319089D01*
X379746Y-319167D01*
X379816Y-319248D01*
X379883Y-319331D01*
X379947Y-319416D01*
X380007Y-319504D01*
X380064Y-319594D01*
X380118Y-319686D01*
X380169Y-319780D01*
X380216Y-319876D01*
X380259Y-319974D01*
X380299Y-320073D01*
X380336Y-320173D01*
X380368Y-320274D01*
X380397Y-320377D01*
X380422Y-320481D01*
X380443Y-320585D01*
X380461Y-320691D01*
X380474Y-320797D01*
X380484Y-320903D01*
X380490Y-321009D01*
X380492Y-321116D01*
X380490Y-321237D01*
X380484Y-321358D01*
X380474Y-321478D01*
X380461Y-321599D01*
X380443Y-321718D01*
X380422Y-321838D01*
X380397Y-321956D01*
X380368Y-322073D01*
X380335Y-322190D01*
X380299Y-322305D01*
X380258Y-322419D01*
X380215Y-322532D01*
X380167Y-322644D01*
X380116Y-322753D01*
X380061Y-322861D01*
X380003Y-322968D01*
X379942Y-323072D01*
X379877Y-323174D01*
X379809Y-323274D01*
X379738Y-323372D01*
X379664Y-323468D01*
X379587Y-323561D01*
X379506Y-323651D01*
X379423Y-323739D01*
X379337Y-323824D01*
X379248Y-323907D01*
X379157Y-323986D01*
X379063Y-324063D01*
X378967Y-324136D01*
X378869Y-324206D01*
X378768Y-324273D01*
X378665Y-324337D01*
X378560Y-324398D01*
X378453Y-324455D01*
X378345Y-324508D01*
X378235Y-324558D01*
X378123Y-324604D01*
X378010Y-324647D01*
X377895Y-324686D01*
X375299Y-319169D02*
X375377Y-319090D01*
X375457Y-319014D01*
X375540Y-318941D01*
X375626Y-318871D01*
X375713Y-318804D01*
X375804Y-318740D01*
X375896Y-318680D01*
X375990Y-318622D01*
X376087Y-318568D01*
X376185Y-318518D01*
X376285Y-318471D01*
X376386Y-318427D01*
X376489Y-318387D01*
X376594Y-318351D01*
X376699Y-318319D01*
X376806Y-318290D01*
X376913Y-318265D01*
X377022Y-318243D01*
X377131Y-318226D01*
X377240Y-318212D01*
X377350Y-318203D01*
X377461Y-318197D01*
X377571Y-318195D01*
X375299Y-319168D02*
X368808Y-324686D01*
X368808Y-318195D01*
X377571Y-306765D02*
X377678Y-306767D01*
X377784Y-306773D01*
X377890Y-306783D01*
X377996Y-306796D01*
X378102Y-306814D01*
X378206Y-306835D01*
X378310Y-306860D01*
X378413Y-306889D01*
X378514Y-306921D01*
X378614Y-306958D01*
X378713Y-306998D01*
X378811Y-307041D01*
X378907Y-307088D01*
X379001Y-307139D01*
X379093Y-307193D01*
X379183Y-307250D01*
X379271Y-307310D01*
X379356Y-307374D01*
X379439Y-307441D01*
X379520Y-307511D01*
X379598Y-307583D01*
X379674Y-307659D01*
X379746Y-307737D01*
X379816Y-307818D01*
X379883Y-307901D01*
X379947Y-307986D01*
X380007Y-308074D01*
X380064Y-308164D01*
X380118Y-308256D01*
X380169Y-308350D01*
X380216Y-308446D01*
X380259Y-308544D01*
X380299Y-308643D01*
X380336Y-308743D01*
X380368Y-308844D01*
X380397Y-308947D01*
X380422Y-309051D01*
X380443Y-309155D01*
X380461Y-309261D01*
X380474Y-309367D01*
X380484Y-309473D01*
X380490Y-309579D01*
X380492Y-309686D01*
X380490Y-309807D01*
X380484Y-309928D01*
X380474Y-310048D01*
X380461Y-310169D01*
X380443Y-310288D01*
X380422Y-310408D01*
X380397Y-310526D01*
X380368Y-310643D01*
X380335Y-310760D01*
X380299Y-310875D01*
X380258Y-310989D01*
X380215Y-311102D01*
X380167Y-311214D01*
X380116Y-311323D01*
X380061Y-311431D01*
X380003Y-311538D01*
X379942Y-311642D01*
X379877Y-311744D01*
X379809Y-311844D01*
X379738Y-311942D01*
X379664Y-312038D01*
X379587Y-312131D01*
X379506Y-312221D01*
X379423Y-312309D01*
X379337Y-312394D01*
X379248Y-312477D01*
X379157Y-312556D01*
X379063Y-312633D01*
X378967Y-312706D01*
X378869Y-312776D01*
X378768Y-312843D01*
X378665Y-312907D01*
X378560Y-312968D01*
X378453Y-313025D01*
X378345Y-313078D01*
X378235Y-313128D01*
X378123Y-313174D01*
X378010Y-313217D01*
X377895Y-313256D01*
X375299Y-307739D02*
X375377Y-307660D01*
X375457Y-307584D01*
X375540Y-307511D01*
X375626Y-307441D01*
X375713Y-307374D01*
X375804Y-307310D01*
X375896Y-307250D01*
X375990Y-307192D01*
X376087Y-307138D01*
X376185Y-307088D01*
X376285Y-307041D01*
X376386Y-306997D01*
X376489Y-306957D01*
X376594Y-306921D01*
X376699Y-306889D01*
X376806Y-306860D01*
X376913Y-306835D01*
X377022Y-306813D01*
X377131Y-306796D01*
X377240Y-306782D01*
X377350Y-306773D01*
X377461Y-306767D01*
X377571Y-306765D01*
X375299Y-307738D02*
X368808Y-313256D01*
X368808Y-306765D01*
X445149Y-202692D02*
X447746Y-202692D01*
X447845Y-202690D01*
X447945Y-202684D01*
X448044Y-202675D01*
X448142Y-202662D01*
X448240Y-202645D01*
X448338Y-202624D01*
X448434Y-202599D01*
X448529Y-202571D01*
X448623Y-202539D01*
X448716Y-202504D01*
X448808Y-202465D01*
X448898Y-202422D01*
X448986Y-202377D01*
X449073Y-202327D01*
X449157Y-202275D01*
X449240Y-202219D01*
X449320Y-202161D01*
X449398Y-202099D01*
X449473Y-202034D01*
X449546Y-201966D01*
X449616Y-201896D01*
X449684Y-201823D01*
X449749Y-201748D01*
X449811Y-201670D01*
X449869Y-201590D01*
X449925Y-201507D01*
X449977Y-201423D01*
X450027Y-201336D01*
X450072Y-201248D01*
X450115Y-201158D01*
X450154Y-201066D01*
X450189Y-200973D01*
X450221Y-200879D01*
X450249Y-200784D01*
X450274Y-200688D01*
X450295Y-200590D01*
X450312Y-200492D01*
X450325Y-200394D01*
X450334Y-200295D01*
X450340Y-200195D01*
X450342Y-200096D01*
X450342Y-193604D01*
X450343Y-193604D02*
X450341Y-193505D01*
X450335Y-193405D01*
X450326Y-193306D01*
X450313Y-193208D01*
X450295Y-193110D01*
X450275Y-193012D01*
X450250Y-192916D01*
X450222Y-192820D01*
X450190Y-192726D01*
X450155Y-192633D01*
X450116Y-192542D01*
X450073Y-192452D01*
X450028Y-192363D01*
X449978Y-192277D01*
X449926Y-192192D01*
X449870Y-192110D01*
X449811Y-192030D01*
X449750Y-191952D01*
X449685Y-191876D01*
X449617Y-191803D01*
X449547Y-191733D01*
X449474Y-191665D01*
X449398Y-191600D01*
X449320Y-191539D01*
X449240Y-191480D01*
X449158Y-191424D01*
X449073Y-191372D01*
X448987Y-191323D01*
X448898Y-191277D01*
X448808Y-191234D01*
X448717Y-191195D01*
X448624Y-191160D01*
X448530Y-191128D01*
X448434Y-191100D01*
X448338Y-191075D01*
X448240Y-191055D01*
X448142Y-191037D01*
X448044Y-191024D01*
X447945Y-191015D01*
X447846Y-191009D01*
X447746Y-191007D01*
X447746Y-191008D02*
X445149Y-191008D01*
X438187Y-191008D02*
X440784Y-200096D01*
X434293Y-200096D01*
X436240Y-197499D02*
X436240Y-202692D01*
X256667Y-217110D02*
X244983Y-217110D01*
X256667Y-217110D02*
X256667Y-213865D01*
X256665Y-213752D01*
X256659Y-213639D01*
X256649Y-213526D01*
X256635Y-213413D01*
X256618Y-213301D01*
X256596Y-213190D01*
X256571Y-213080D01*
X256541Y-212970D01*
X256508Y-212862D01*
X256471Y-212755D01*
X256431Y-212649D01*
X256386Y-212545D01*
X256338Y-212442D01*
X256287Y-212341D01*
X256232Y-212242D01*
X256174Y-212145D01*
X256112Y-212050D01*
X256047Y-211957D01*
X255979Y-211867D01*
X255908Y-211779D01*
X255833Y-211693D01*
X255756Y-211610D01*
X255676Y-211530D01*
X255593Y-211453D01*
X255507Y-211378D01*
X255419Y-211307D01*
X255329Y-211239D01*
X255236Y-211174D01*
X255141Y-211112D01*
X255044Y-211054D01*
X254945Y-210999D01*
X254844Y-210948D01*
X254741Y-210900D01*
X254637Y-210855D01*
X254531Y-210815D01*
X254424Y-210778D01*
X254316Y-210745D01*
X254206Y-210715D01*
X254096Y-210690D01*
X253985Y-210668D01*
X253873Y-210651D01*
X253760Y-210637D01*
X253647Y-210627D01*
X253534Y-210621D01*
X253421Y-210619D01*
X253308Y-210621D01*
X253195Y-210627D01*
X253082Y-210637D01*
X252969Y-210651D01*
X252857Y-210668D01*
X252746Y-210690D01*
X252636Y-210715D01*
X252526Y-210745D01*
X252418Y-210778D01*
X252311Y-210815D01*
X252205Y-210855D01*
X252101Y-210900D01*
X251998Y-210948D01*
X251897Y-210999D01*
X251798Y-211054D01*
X251701Y-211112D01*
X251606Y-211174D01*
X251513Y-211239D01*
X251423Y-211307D01*
X251335Y-211378D01*
X251249Y-211453D01*
X251166Y-211530D01*
X251086Y-211610D01*
X251009Y-211693D01*
X250934Y-211779D01*
X250863Y-211867D01*
X250795Y-211957D01*
X250730Y-212050D01*
X250668Y-212145D01*
X250610Y-212242D01*
X250555Y-212341D01*
X250504Y-212442D01*
X250456Y-212545D01*
X250411Y-212649D01*
X250371Y-212755D01*
X250334Y-212862D01*
X250301Y-212970D01*
X250271Y-213080D01*
X250246Y-213190D01*
X250224Y-213301D01*
X250207Y-213413D01*
X250193Y-213526D01*
X250183Y-213639D01*
X250177Y-213752D01*
X250175Y-213865D01*
X250176Y-213865D02*
X250176Y-217110D01*
X250176Y-213216D02*
X244983Y-210619D01*
X254071Y-205754D02*
X256667Y-202509D01*
X244983Y-202509D01*
X244983Y-205754D02*
X244983Y-199263D01*
X251474Y-194324D02*
X251474Y-190429D01*
X251472Y-190330D01*
X251466Y-190230D01*
X251457Y-190131D01*
X251444Y-190033D01*
X251427Y-189935D01*
X251406Y-189837D01*
X251381Y-189741D01*
X251353Y-189646D01*
X251321Y-189552D01*
X251286Y-189459D01*
X251247Y-189367D01*
X251204Y-189277D01*
X251159Y-189189D01*
X251109Y-189102D01*
X251057Y-189018D01*
X251001Y-188935D01*
X250943Y-188855D01*
X250881Y-188777D01*
X250816Y-188702D01*
X250748Y-188629D01*
X250678Y-188559D01*
X250605Y-188491D01*
X250530Y-188426D01*
X250452Y-188364D01*
X250372Y-188306D01*
X250289Y-188250D01*
X250205Y-188198D01*
X250118Y-188148D01*
X250030Y-188103D01*
X249940Y-188060D01*
X249848Y-188021D01*
X249755Y-187986D01*
X249661Y-187954D01*
X249566Y-187926D01*
X249470Y-187901D01*
X249372Y-187880D01*
X249274Y-187863D01*
X249176Y-187850D01*
X249077Y-187841D01*
X248977Y-187835D01*
X248878Y-187833D01*
X248229Y-187833D01*
X248116Y-187835D01*
X248003Y-187841D01*
X247890Y-187851D01*
X247777Y-187865D01*
X247665Y-187882D01*
X247554Y-187904D01*
X247444Y-187929D01*
X247334Y-187959D01*
X247226Y-187992D01*
X247119Y-188029D01*
X247013Y-188069D01*
X246909Y-188114D01*
X246806Y-188162D01*
X246705Y-188213D01*
X246606Y-188268D01*
X246509Y-188326D01*
X246414Y-188388D01*
X246321Y-188453D01*
X246231Y-188521D01*
X246143Y-188592D01*
X246057Y-188667D01*
X245974Y-188744D01*
X245894Y-188824D01*
X245817Y-188907D01*
X245742Y-188993D01*
X245671Y-189081D01*
X245603Y-189171D01*
X245538Y-189264D01*
X245476Y-189359D01*
X245418Y-189456D01*
X245363Y-189555D01*
X245312Y-189656D01*
X245264Y-189759D01*
X245219Y-189863D01*
X245179Y-189969D01*
X245142Y-190076D01*
X245109Y-190184D01*
X245079Y-190294D01*
X245054Y-190404D01*
X245032Y-190515D01*
X245015Y-190627D01*
X245001Y-190740D01*
X244991Y-190853D01*
X244985Y-190966D01*
X244983Y-191079D01*
X244985Y-191192D01*
X244991Y-191305D01*
X245001Y-191418D01*
X245015Y-191531D01*
X245032Y-191643D01*
X245054Y-191754D01*
X245079Y-191864D01*
X245109Y-191974D01*
X245142Y-192082D01*
X245179Y-192189D01*
X245219Y-192295D01*
X245264Y-192399D01*
X245312Y-192502D01*
X245363Y-192603D01*
X245418Y-192702D01*
X245476Y-192799D01*
X245538Y-192894D01*
X245603Y-192987D01*
X245671Y-193077D01*
X245742Y-193165D01*
X245817Y-193251D01*
X245894Y-193334D01*
X245974Y-193414D01*
X246057Y-193491D01*
X246143Y-193566D01*
X246231Y-193637D01*
X246321Y-193705D01*
X246414Y-193770D01*
X246509Y-193832D01*
X246606Y-193890D01*
X246705Y-193945D01*
X246806Y-193996D01*
X246909Y-194044D01*
X247013Y-194089D01*
X247119Y-194129D01*
X247226Y-194166D01*
X247334Y-194199D01*
X247444Y-194229D01*
X247554Y-194254D01*
X247665Y-194276D01*
X247777Y-194293D01*
X247890Y-194307D01*
X248003Y-194317D01*
X248116Y-194323D01*
X248229Y-194325D01*
X248229Y-194324D02*
X251474Y-194324D01*
X251617Y-194322D01*
X251760Y-194316D01*
X251903Y-194306D01*
X252045Y-194292D01*
X252187Y-194275D01*
X252329Y-194253D01*
X252470Y-194228D01*
X252610Y-194198D01*
X252749Y-194165D01*
X252887Y-194128D01*
X253024Y-194087D01*
X253160Y-194043D01*
X253295Y-193994D01*
X253428Y-193942D01*
X253560Y-193887D01*
X253690Y-193827D01*
X253819Y-193764D01*
X253946Y-193698D01*
X254070Y-193628D01*
X254193Y-193555D01*
X254314Y-193478D01*
X254433Y-193398D01*
X254549Y-193315D01*
X254664Y-193229D01*
X254775Y-193140D01*
X254885Y-193047D01*
X254991Y-192952D01*
X255095Y-192853D01*
X255196Y-192752D01*
X255295Y-192648D01*
X255390Y-192542D01*
X255483Y-192432D01*
X255572Y-192321D01*
X255658Y-192206D01*
X255741Y-192090D01*
X255821Y-191971D01*
X255898Y-191850D01*
X255971Y-191728D01*
X256041Y-191603D01*
X256107Y-191476D01*
X256170Y-191347D01*
X256230Y-191217D01*
X256285Y-191085D01*
X256337Y-190952D01*
X256386Y-190817D01*
X256430Y-190681D01*
X256471Y-190544D01*
X256508Y-190406D01*
X256541Y-190267D01*
X256571Y-190127D01*
X256596Y-189986D01*
X256618Y-189844D01*
X256635Y-189702D01*
X256649Y-189560D01*
X256659Y-189417D01*
X256665Y-189274D01*
X256667Y-189131D01*
X267208Y-217110D02*
X278892Y-217110D01*
X278892Y-213865D01*
X278890Y-213752D01*
X278884Y-213639D01*
X278874Y-213526D01*
X278860Y-213413D01*
X278843Y-213301D01*
X278821Y-213190D01*
X278796Y-213080D01*
X278766Y-212970D01*
X278733Y-212862D01*
X278696Y-212755D01*
X278656Y-212649D01*
X278611Y-212545D01*
X278563Y-212442D01*
X278512Y-212341D01*
X278457Y-212242D01*
X278399Y-212145D01*
X278337Y-212050D01*
X278272Y-211957D01*
X278204Y-211867D01*
X278133Y-211779D01*
X278058Y-211693D01*
X277981Y-211610D01*
X277901Y-211530D01*
X277818Y-211453D01*
X277732Y-211378D01*
X277644Y-211307D01*
X277554Y-211239D01*
X277461Y-211174D01*
X277366Y-211112D01*
X277269Y-211054D01*
X277170Y-210999D01*
X277069Y-210948D01*
X276966Y-210900D01*
X276862Y-210855D01*
X276756Y-210815D01*
X276649Y-210778D01*
X276541Y-210745D01*
X276431Y-210715D01*
X276321Y-210690D01*
X276210Y-210668D01*
X276098Y-210651D01*
X275985Y-210637D01*
X275872Y-210627D01*
X275759Y-210621D01*
X275646Y-210619D01*
X275533Y-210621D01*
X275420Y-210627D01*
X275307Y-210637D01*
X275194Y-210651D01*
X275082Y-210668D01*
X274971Y-210690D01*
X274861Y-210715D01*
X274751Y-210745D01*
X274643Y-210778D01*
X274536Y-210815D01*
X274430Y-210855D01*
X274326Y-210900D01*
X274223Y-210948D01*
X274122Y-210999D01*
X274023Y-211054D01*
X273926Y-211112D01*
X273831Y-211174D01*
X273738Y-211239D01*
X273648Y-211307D01*
X273560Y-211378D01*
X273474Y-211453D01*
X273391Y-211530D01*
X273311Y-211610D01*
X273234Y-211693D01*
X273159Y-211779D01*
X273088Y-211867D01*
X273020Y-211957D01*
X272955Y-212050D01*
X272893Y-212145D01*
X272835Y-212242D01*
X272780Y-212341D01*
X272729Y-212442D01*
X272681Y-212545D01*
X272636Y-212649D01*
X272596Y-212755D01*
X272559Y-212862D01*
X272526Y-212970D01*
X272496Y-213080D01*
X272471Y-213190D01*
X272449Y-213301D01*
X272432Y-213413D01*
X272418Y-213526D01*
X272408Y-213639D01*
X272402Y-213752D01*
X272400Y-213865D01*
X272401Y-213865D02*
X272401Y-217110D01*
X272401Y-213216D02*
X267208Y-210619D01*
X276296Y-205754D02*
X278892Y-202509D01*
X267208Y-202509D01*
X267208Y-205754D02*
X267208Y-199263D01*
X277594Y-194324D02*
X278892Y-194324D01*
X278892Y-187833D01*
X267208Y-191079D01*
M02*
