G04 EAGLE Gerber RS-274X export*
G75*
%MOMM*%
%FSLAX34Y34*%
%LPD*%
%INSolderpaste Top*%
%IPPOS*%
%AMOC8*
5,1,8,0,0,1.08239X$1,22.5*%
G01*
%ADD10R,1.550000X1.300000*%
%ADD11R,1.300000X1.500000*%
%ADD12R,1.500000X1.300000*%
%ADD13R,1.470000X1.270000*%
%ADD14R,1.500000X0.900000*%


D10*
X26925Y-44725D03*
X106425Y-44725D03*
X26925Y275D03*
X106425Y275D03*
D11*
X34950Y-130175D03*
X53950Y-130175D03*
X127025Y-44450D03*
X146025Y-44450D03*
D12*
X390525Y-82575D03*
X390525Y-101575D03*
D11*
X34950Y-155575D03*
X53950Y-155575D03*
X34950Y-254000D03*
X53950Y-254000D03*
X34950Y-279400D03*
X53950Y-279400D03*
D10*
X433450Y275D03*
X353950Y275D03*
X433450Y-44725D03*
X353950Y-44725D03*
D11*
X333350Y0D03*
X314350Y0D03*
D10*
X353950Y-416200D03*
X433450Y-416200D03*
X353950Y-371200D03*
X433450Y-371200D03*
D12*
X463550Y-380975D03*
X463550Y-361975D03*
D10*
X26925Y-416200D03*
X106425Y-416200D03*
X26925Y-371200D03*
X106425Y-371200D03*
D12*
X136525Y-390500D03*
X136525Y-371500D03*
X193675Y-371500D03*
X193675Y-390500D03*
X165100Y-390500D03*
X165100Y-371500D03*
D13*
X222250Y-369025D03*
X222250Y-412025D03*
D12*
X76200Y-107975D03*
X76200Y-126975D03*
D14*
X145150Y-108575D03*
X145150Y-75575D03*
X96150Y-75575D03*
X96150Y-108575D03*
X218175Y-108575D03*
X218175Y-75575D03*
X169175Y-75575D03*
X169175Y-108575D03*
X291200Y-108575D03*
X291200Y-75575D03*
X242200Y-75575D03*
X242200Y-108575D03*
X364225Y-108575D03*
X364225Y-75575D03*
X315225Y-75575D03*
X315225Y-108575D03*
X315225Y-148600D03*
X315225Y-181600D03*
X364225Y-181600D03*
X364225Y-148600D03*
X242200Y-148600D03*
X242200Y-181600D03*
X291200Y-181600D03*
X291200Y-148600D03*
X169175Y-148600D03*
X169175Y-181600D03*
X218175Y-181600D03*
X218175Y-148600D03*
X96150Y-148600D03*
X96150Y-181600D03*
X145150Y-181600D03*
X145150Y-148600D03*
X95225Y-307550D03*
X95225Y-340550D03*
X144225Y-340550D03*
X144225Y-307550D03*
X169175Y-307350D03*
X169175Y-340350D03*
X218175Y-340350D03*
X218175Y-307350D03*
X242200Y-307350D03*
X242200Y-340350D03*
X291200Y-340350D03*
X291200Y-307350D03*
X315225Y-307350D03*
X315225Y-340350D03*
X364225Y-340350D03*
X364225Y-307350D03*
X364225Y-260975D03*
X364225Y-227975D03*
X315225Y-227975D03*
X315225Y-260975D03*
X291200Y-260975D03*
X291200Y-227975D03*
X242200Y-227975D03*
X242200Y-260975D03*
X218175Y-260975D03*
X218175Y-227975D03*
X169175Y-227975D03*
X169175Y-260975D03*
X145150Y-260975D03*
X145150Y-227975D03*
X96150Y-227975D03*
X96150Y-260975D03*
M02*
